<?xml version="1.0" encoding="UTF-8"?>
<!DOCTYPE svg PUBLIC "-//W3C//DTD SVG 1.1//EN" "http://www.w3.org/Graphics/SVG/1.1/DTD/svg11.dtd">
<svg version="1.1" xmlns="http://www.w3.org/2000/svg" xmlns:xlink="http://www.w3.org/1999/xlink" x="0" y="0" width="500" height="500" viewBox="0, 0, 500, 500">
  <defs>
    <filter id="Shadow_1">
      <feGaussianBlur in="SourceAlpha" stdDeviation="2.5"/>
      <feOffset dx="0" dy="2" result="offsetblur"/>
      <feFlood flood-color="#000000"/>
      <feComposite in2="offsetblur" operator="in"/>
    </filter>
    <filter id="Shadow_2">
      <feGaussianBlur in="SourceAlpha" stdDeviation="2.5"/>
      <feOffset dx="0" dy="2" result="offsetblur"/>
      <feFlood flood-color="#000000"/>
      <feComposite in2="offsetblur" operator="in"/>
    </filter>
  </defs>
  <g id="Cheddar">
    <g id="Cheese">
      <g>
        <path d="M464.65,170.725 C466.087,170.954 466.873,171.843 467.009,173.266 L464.033,339.305 C464.01,340.623 462.967,341.696 461.65,341.758 L36.607,361.577 C35.175,361.644 33.98,360.495 33.991,359.06 L34.285,321.342 C34.295,320.092 35.227,319.042 36.466,318.882 C44.856,317.831 50.759,311.77 51.561,303.406 C51.16,294.292 44.889,289.835 36.593,287.994 C35.409,287.766 34.556,286.725 34.565,285.519 L34.86,247.835 C34.869,246.628 35.74,245.6 36.929,245.392 L464.079,170.759 L464.65,170.725 z" filter="url(#Shadow_1)" fill="rgba(0,0,0,0.75)"/>
        <path d="M464.509,173.222 L461.534,339.26 L36.491,359.08 L36.785,321.362 C46.479,320.114 53.543,313.223 54.067,303.433 C53.728,293.145 46.672,287.387 37.065,285.539 L37.36,247.855 L464.509,173.222 z" fill="#FFB000"/>
        <path d="M464.509,173.222 L461.534,339.26 L36.491,359.08 L36.785,321.362 C46.479,320.114 53.543,313.223 54.067,303.433 C53.728,293.145 46.672,287.387 37.065,285.539 L37.36,247.855 L464.509,173.222 z" fill-opacity="0" stroke="#000000" stroke-width="5" stroke-linecap="round" stroke-linejoin="round"/>
      </g>
      <g>
        <path d="M304.964,70.94 C344.287,71.286 381.035,79.922 411.839,97.181 C420.88,102.246 428.447,107.31 434.225,112.508 C435.043,113.244 435.283,114.427 434.818,115.424 C434.029,117.167 434.042,119.11 434.02,120.984 C434.465,126.758 436.986,132.023 440.091,136.811 C444.272,142.84 449.21,146.269 454.31,146.573 C455.739,146.669 457.131,146.492 458.412,146.046 C459.63,145.622 460.97,146.194 461.507,147.366 C465.039,155.081 466.807,163.742 467.008,173.168 C467.035,174.403 466.156,175.472 464.939,175.684 L37.79,250.317 C35.112,250.785 33.717,247.245 35.994,245.76 L196.391,141.211 C197.594,140.427 199.208,140.814 199.923,142.058 C201.951,145.582 205.423,147.846 210.067,148.939 C215.588,150.035 222.193,148.791 227.658,145.641 C233.877,142.056 237.575,136.689 237.805,130.72 C237.966,126.973 236.882,123.957 234.098,119.586 C233.362,118.43 233.694,116.897 234.842,116.148 L303.577,71.346 C303.989,71.077 304.471,70.936 304.964,70.94 z" filter="url(#Shadow_2)" fill="rgba(0,0,0,0.75)"/>
        <path d="M304.942,73.44 C341.464,73.761 378.533,81.385 410.617,99.362 C418.011,103.505 426.229,108.677 432.553,114.367 C431.568,116.476 431.528,118.81 431.519,121.085 C431.858,126.493 434.363,132.939 438.037,138.236 C442.38,144.498 447.913,148.697 454.142,149.067 C455.869,149.184 457.601,148.976 459.234,148.407 C462.804,156.205 464.327,164.694 464.509,173.222 L37.36,247.855 L197.757,143.305 C200.333,147.783 204.673,150.238 209.581,151.391 C215.787,152.623 223.003,151.21 228.906,147.807 C235.574,143.963 240.029,137.941 240.303,130.827 C240.513,125.951 238.752,122.238 236.207,118.243 L304.942,73.44 z" fill="#FFB000"/>
        <path d="M304.942,73.44 C341.464,73.761 378.533,81.385 410.617,99.362 C418.011,103.505 426.229,108.677 432.553,114.367 C431.568,116.476 431.528,118.81 431.519,121.085 C431.858,126.493 434.363,132.939 438.037,138.236 C442.38,144.498 447.913,148.697 454.142,149.067 C455.869,149.184 457.601,148.976 459.234,148.407 C462.804,156.205 464.327,164.694 464.509,173.222 L37.36,247.855 L197.757,143.305 C200.333,147.783 204.673,150.238 209.581,151.391 C215.787,152.623 223.003,151.21 228.906,147.807 C235.574,143.963 240.029,137.941 240.303,130.827 C240.513,125.951 238.752,122.238 236.207,118.243 L304.942,73.44 z" fill-opacity="0" stroke="#000000" stroke-width="5" stroke-linecap="round" stroke-linejoin="round"/>
      </g>
      <g id="Shape">
        <path d="M324.608,135.782 C312.421,135.782 302.542,128.951 302.542,120.524 C302.542,112.098 312.421,105.266 324.608,105.266 C336.794,105.266 346.674,112.098 346.674,120.524 C346.674,128.951 336.794,135.782 324.608,135.782 z" fill="#C48700"/>
        <path d="M324.608,135.782 C312.421,135.782 302.542,128.951 302.542,120.524 C302.542,112.098 312.421,105.266 324.608,105.266 C336.794,105.266 346.674,112.098 346.674,120.524 C346.674,128.951 336.794,135.782 324.608,135.782 z" fill-opacity="0" stroke="#000000" stroke-width="5" stroke-linecap="round" stroke-linejoin="round"/>
      </g>
      <g>
        <path d="M405.191,268.076 C392.799,268.076 382.754,258.035 382.754,245.649 C382.754,233.263 392.799,223.222 405.191,223.222 C417.582,223.222 427.627,233.263 427.627,245.649 C427.627,258.035 417.582,268.076 405.191,268.076 z" fill="#C48700"/>
        <path d="M405.191,268.076 C392.799,268.076 382.754,258.035 382.754,245.649 C382.754,233.263 392.799,223.222 405.191,223.222 C417.582,223.222 427.627,233.263 427.627,245.649 C427.627,258.035 417.582,268.076 405.191,268.076 z" fill-opacity="0" stroke="#000000" stroke-width="5" stroke-linecap="round" stroke-linejoin="round"/>
      </g>
      <g>
        <path d="M279.363,324.695 C263.899,324.695 251.363,312.02 251.363,296.386 C251.363,280.751 263.899,268.076 279.363,268.076 C294.827,268.076 307.363,280.751 307.363,296.386 C307.363,312.02 294.827,324.695 279.363,324.695 z" fill="#C48700"/>
        <path d="M279.363,324.695 C263.899,324.695 251.363,312.02 251.363,296.386 C251.363,280.751 263.899,268.076 279.363,268.076 C294.827,268.076 307.363,280.751 307.363,296.386 C307.363,312.02 294.827,324.695 279.363,324.695 z" fill-opacity="0" stroke="#000000" stroke-width="5" stroke-linecap="round" stroke-linejoin="round"/>
      </g>
      <g id="Shape">
        <path d="M139.592,299.288 C127.201,299.288 117.156,289.247 117.156,276.861 C117.156,264.475 127.201,254.434 139.592,254.434 C151.984,254.434 162.029,264.475 162.029,276.861 C162.029,289.247 151.984,299.288 139.592,299.288 z" fill="#C48700"/>
        <path d="M139.592,299.288 C127.201,299.288 117.156,289.247 117.156,276.861 C117.156,264.475 127.201,254.434 139.592,254.434 C151.984,254.434 162.029,264.475 162.029,276.861 C162.029,289.247 151.984,299.288 139.592,299.288 z" fill-opacity="0" stroke="#000000" stroke-width="5" stroke-linecap="round" stroke-linejoin="round"/>
      </g>
      <g>
        <path d="M191.747,197.855 C182.951,197.855 175.821,193.822 175.821,188.847 C175.821,183.872 182.951,179.839 191.747,179.839 C200.542,179.839 207.673,183.872 207.673,188.847 C207.673,193.822 200.542,197.855 191.747,197.855 z" fill="#C48700"/>
        <path d="M191.747,197.855 C182.951,197.855 175.821,193.822 175.821,188.847 C175.821,183.872 182.951,179.839 191.747,179.839 C200.542,179.839 207.673,183.872 207.673,188.847 C207.673,193.822 200.542,197.855 191.747,197.855 z" fill-opacity="0" stroke="#000000" stroke-width="5" stroke-linecap="round" stroke-linejoin="round"/>
      </g>
      <path d="M307.156,203.058 L327.109,201.323" fill-opacity="0" stroke="#FFB000" stroke-width="17" stroke-linecap="square" stroke-linejoin="bevel"/>
    </g>
  </g>
</svg>
