<?xml version="1.0" encoding="UTF-8" standalone="no"?>
<svg
   xmlns:dc="http://purl.org/dc/elements/1.1/"
   xmlns:cc="http://creativecommons.org/ns#"
   xmlns:rdf="http://www.w3.org/1999/02/22-rdf-syntax-ns#"
   xmlns:svg="http://www.w3.org/2000/svg"
   xmlns="http://www.w3.org/2000/svg"
   xmlns:sodipodi="http://sodipodi.sourceforge.net/DTD/sodipodi-0.dtd"
   xmlns:inkscape="http://www.inkscape.org/namespaces/inkscape"
   version="1.1"
   x="0"
   y="0"
   width="500"
   height="500"
   viewBox="0, 0, 500, 500"
   id="svg65"
   sodipodi:docname="Chutney.svg"
   inkscape:version="1.0.1 (3bc2e813f5, 2020-09-07)">
  <metadata
     id="metadata69">
    <rdf:RDF>
      <cc:Work
         rdf:about="">
        <dc:format>image/svg+xml</dc:format>
        <dc:type
           rdf:resource="http://purl.org/dc/dcmitype/StillImage" />
      </cc:Work>
    </rdf:RDF>
  </metadata>
  <sodipodi:namedview
     pagecolor="#ffffff"
     bordercolor="#666666"
     borderopacity="1"
     objecttolerance="10"
     gridtolerance="10"
     guidetolerance="10"
     inkscape:pageopacity="0"
     inkscape:pageshadow="2"
     inkscape:window-width="1366"
     inkscape:window-height="745"
     id="namedview67"
     showgrid="false"
     inkscape:zoom="1.3979107"
     inkscape:cx="260.24584"
     inkscape:cy="240.50659"
     inkscape:window-x="-8"
     inkscape:window-y="-8"
     inkscape:window-maximized="1"
     inkscape:current-layer="svg65" />
  <defs
     id="defs29">
    <filter
       id="Shadow_1">
      <feGaussianBlur
         in="SourceAlpha"
         stdDeviation="2.5"
         id="feGaussianBlur2" />
      <feOffset
         dx="0"
         dy="2"
         result="offsetblur"
         id="feOffset4" />
      <feFlood
         flood-color="#000000"
         id="feFlood6" />
      <feComposite
         in2="offsetblur"
         operator="in"
         id="feComposite8" />
    </filter>
    <filter
       id="Shadow_2">
      <feGaussianBlur
         in="SourceAlpha"
         stdDeviation="2.5"
         id="feGaussianBlur11" />
      <feOffset
         dx="0"
         dy="2"
         result="offsetblur"
         id="feOffset13" />
      <feFlood
         flood-color="#000000"
         id="feFlood15" />
      <feComposite
         in2="offsetblur"
         operator="in"
         id="feComposite17" />
    </filter>
    <filter
       id="Shadow_3">
      <feGaussianBlur
         in="SourceAlpha"
         stdDeviation="2.5"
         id="feGaussianBlur20" />
      <feOffset
         dx="0"
         dy="2"
         result="offsetblur"
         id="feOffset22" />
      <feFlood
         flood-color="#000000"
         id="feFlood24" />
      <feComposite
         in2="offsetblur"
         operator="in"
         id="feComposite26" />
    </filter>
  </defs>
  <g
     id="Layer_4"
     style="fill:#00ff00">
    <g
       id="Base"
       style="fill:#00ff00">
      <g
         id="Shape"
         style="fill:#00ff00">
        <path
           d="M358.936,137.187 C386.997,137.187 409.838,157.936 409.838,183.658 L409.838,365.107 C409.838,390.829 386.997,411.578 358.936,411.578 L174.553,411.578 C146.492,411.578 123.651,390.829 123.651,365.107 L123.651,183.658 C123.651,157.936 146.492,137.187 174.553,137.187 L358.936,137.187 z"
           filter="url(#Shadow_1)"
           fill="rgba(0,0,0,0.75)"
           id="path31"
           style="fill:#00ff00" />
        <path
           d="M174.553,139.687 L358.936,139.687 C385.668,139.687 407.338,159.373 407.338,183.658 L407.338,365.107 C407.338,389.392 385.668,409.078 358.936,409.078 L174.553,409.078 C147.822,409.078 126.151,389.392 126.151,365.107 L126.151,183.658 C126.151,159.373 147.822,139.687 174.553,139.687 z"
           fill="#E37626"
           id="path33"
           style="fill:#00ff00" />
        <path
           d="M174.553,139.687 L358.936,139.687 C385.668,139.687 407.338,159.373 407.338,183.658 L407.338,365.107 C407.338,389.392 385.668,409.078 358.936,409.078 L174.553,409.078 C147.822,409.078 126.151,389.392 126.151,365.107 L126.151,183.658 C126.151,159.373 147.822,139.687 174.553,139.687 z"
           fill-opacity="0"
           stroke="#000000"
           stroke-width="5"
           stroke-linecap="round"
           id="path35"
           style="fill:#00ff00" />
      </g>
      <g
         id="g44"
         style="fill:#00ff00">
        <path
           d="M379.697,252.179 C381.078,252.179 382.197,253.299 382.197,254.679 L382.197,341.251 C382.197,342.632 381.078,343.751 379.697,343.751 L153.169,343.751 C151.788,343.751 150.669,342.632 150.669,341.251 L150.669,254.679 C150.669,253.299 151.788,252.179 153.169,252.179 L379.697,252.179 z"
           filter="url(#Shadow_2)"
           fill="rgba(0,0,0,0.75)"
           id="path38"
           style="fill:#00ff00" />
        <path
           d="M153.169,254.679 L379.697,254.679 L379.697,341.251 L153.169,341.251 z"
           fill="#FFFFFF"
           id="path40"
           style="fill:#00ff00" />
        <path
           d="M153.169,254.679 L379.697,254.679 L379.697,341.251 L153.169,341.251 z"
           fill-opacity="0"
           stroke="#000000"
           stroke-width="5"
           stroke-linecap="round"
           stroke-linejoin="round"
           id="path42"
           style="fill:#00ff00" />
      </g>
      <g
         id="g52"
         style="fill:#00ff00">
        <path
           d="M191.53,298.969 L190.984,300.229 Q190.816,301.615 189.724,301.741 L189.43,302.329 L188.002,303.211 L187.666,303.631 L186.952,304.303 Q186.574,304.345 185.986,304.471 Q184.894,305.479 183.382,305.983 L182.626,306.361 Q181.87,306.445 180.316,306.991 L179.518,307.495 L178.72,307.369 Q177.964,307.663 177.376,307.663 Q176.914,307.663 176.41,307.495 Q176.41,307.747 175.948,307.747 Q175.57,307.747 174.772,307.411 L174.436,307.411 L174.604,307.243 L173.848,307.453 L173.512,307.369 L173.092,307.495 L171.832,306.991 L171.286,306.655 L170.236,306.319 L170.026,305.857 Q168.724,305.689 168.556,304.723 L168.556,304.555 L168.64,304.639 Q168.22,304.219 167.8,303.127 Q167.464,303.085 167.065,302.308 Q166.666,301.531 166.666,300.733 Q166.666,300.229 166.708,299.641 Q166.54,299.263 166.54,298.549 L166.75,297.835 L166.75,296.869 L167.086,296.701 L167.128,296.449 L167.674,294.559 L168.22,293.341 L168.556,292.459 Q168.64,291.871 169.27,291.073 L169.438,290.863 L169.228,290.023 L170.152,289.561 Q170.53,289.183 170.74,289.015 L170.908,288.049 L171.538,287.755 L171.748,286.999 Q172.588,286.915 172.882,286.621 Q173.344,285.949 174.058,285.655 L174.436,285.319 L175.528,285.025 L176.158,284.647 L176.956,285.025 Q177.922,284.815 178.216,284.815 L178.678,284.815 L178.93,284.899 L179.434,284.941 Q180.484,285.445 181.45,285.655 L181.996,286.117 L184.474,287.503 L184.768,288.091 L185.188,288.469 L185.482,289.351 L185.734,289.981 L185.902,290.779 L185.86,291.787 Q185.86,291.871 185.776,292.375 L185.776,292.501 Q185.776,293.803 183.34,294.391 L182.5,293.845 L182.038,293.215 L181.786,292.333 L181.786,291.703 L181.66,291.031 L181.66,289.981 L181.786,289.519 L181.576,289.183 Q181.408,289.057 181.03,288.805 L180.904,288.721 Q179.686,288.385 179.644,288.049 L178.846,288.049 L178.51,287.839 L178.3,288.301 L177.502,287.797 L177.292,287.923 L176.788,287.839 L176.284,288.175 Q175.864,288.049 175.486,288.049 L174.94,288.805 L173.764,289.855 L172.756,291.241 L172.546,291.325 L172.252,292.249 L171.748,292.585 L171.748,292.963 L170.95,294.181 L170.572,295.861 L170.614,296.029 L170.236,296.701 L170.488,297.373 L170.026,297.751 L170.026,297.919 L169.858,298.045 L169.9,299.221 L169.732,300.103 L170.068,300.649 L170.152,300.901 L170.53,301.237 L170.53,301.825 L170.992,302.455 L170.824,302.749 L171.412,303.337 L171.454,303.547 L172.966,304.093 L172.924,304.345 L174.016,304.471 L174.436,304.849 L175.402,304.513 L175.864,305.017 L176.116,304.975 Q176.62,304.555 177.082,304.555 Q177.208,304.555 177.544,304.639 L178.09,304.639 L178.384,304.849 L178.762,304.681 Q179.182,304.681 179.392,304.639 Q179.98,304.093 180.862,304.093 Q181.198,303.757 182.038,303.757 Q182.248,303.505 183.256,303.169 Q183.76,303.169 184.054,302.959 L184.39,302.413 L185.02,302.245 L185.608,301.951 L186.112,301.447 L186.868,301.111 L189.094,298.969 L190.438,298.255 z M225.214,292.543 L224.71,292.963 Q224.836,293.131 225.172,293.551 L223.576,294.559 L223.408,294.559 Q223.198,294.559 222.862,294.433 L222.358,294.853 L221.644,294.769 L220.888,295.399 L220.174,294.979 L219.292,295.231 L218.452,295.735 Q218.368,295.693 218.242,295.693 Q217.906,295.693 217.864,295.903 L217.528,297.289 Q217.696,297.583 217.696,297.793 Q217.696,298.087 217.57,298.423 L217.444,298.759 L217.612,298.843 Q217.612,299.557 217.276,300.103 Q217.528,300.691 217.612,301.027 L217.234,301.321 L217.276,302.833 L216.898,305.017 L216.856,305.437 Q216.94,305.941 216.94,306.109 L216.94,306.319 L217.108,306.739 L217.15,307.495 Q217.108,307.705 216.94,308.125 Q216.898,309.553 214.882,309.637 L214.798,308.713 L214.462,308.167 L214.21,307.411 L214.21,305.941 L213.916,305.059 L214.042,304.975 L213.916,304.345 L213.916,303.295 L214.042,301.657 L213.958,300.187 L214.21,299.347 L214.21,298.381 Q214.21,298.087 214.315,297.583 Q214.42,297.079 214.42,296.827 Q214.42,296.407 214.168,296.029 L214.084,295.903 L213.958,295.987 L213.412,295.819 Q212.656,296.029 211.984,296.029 Q211.522,296.029 211.312,295.987 L209.506,296.533 L207.574,296.323 Q206.818,296.239 206.524,296.239 Q205.978,296.239 205.012,296.533 L204.844,296.533 L203.878,296.953 L203.206,296.491 L202.156,296.701 L202.03,296.617 L201.862,296.701 L201.022,296.659 L200.938,296.995 L199.762,296.533 Q199.048,296.617 198.712,296.659 L198.712,298.591 L198.586,299.557 L198.796,300.355 L198.46,300.985 L198.754,301.573 L198.46,303.379 L198.628,303.925 L198.544,304.933 L198.922,305.773 L198.754,306.151 L198.838,306.655 Q198.796,307.579 197.788,307.579 Q196.066,307.579 196.066,304.471 L195.478,303.757 L195.268,303.253 Q195.268,302.707 195.52,302.329 L195.604,301.615 L195.478,301.195 L195.268,297.919 L195.268,297.037 L195.184,296.911 L194.344,296.449 L194.218,294.391 L195.394,293.719 Q195.604,293.047 195.604,292.039 Q195.604,291.073 195.394,290.401 L195.646,290.527 L195.604,289.939 L195.856,289.057 L195.604,287.587 L195.604,286.621 L195.898,285.151 L197.536,284.269 L198.334,284.857 L199.216,285.151 L199.342,286.075 L199.72,286.621 Q199.51,287.209 199.342,287.839 Q199.468,288.511 199.468,289.267 Q199.468,290.443 199.174,291.577 L199.552,292.375 L199.132,292.963 L199.132,293.467 L199.51,293.593 L200.518,293.467 L201.232,293.551 L202.366,293.425 L202.702,293.551 Q202.912,293.509 203.164,293.509 Q203.332,293.509 203.668,293.593 L203.752,293.635 L204.382,293.635 Q204.424,293.635 205.033,293.593 Q205.642,293.551 206.272,293.551 L206.944,293.131 L207.574,293.509 L208.204,293.551 L208.414,293.593 Q208.75,293.509 208.96,293.509 L209.17,293.509 L213.622,293.047 L214.252,293.089 L214.462,292.963 L214.252,292.249 L214.462,291.619 L214.168,289.897 L214.462,289.351 L213.706,287.335 L213.622,287.041 L213.454,286.831 Q213.496,286.747 213.622,286.453 Q213.706,286.285 213.706,286.285 L213.706,286.117 Q213.706,285.781 214.378,285.487 L214.798,284.311 L215.974,284.521 L216.478,284.815 L217.654,284.563 L217.654,285.151 L218.158,285.025 L218.158,286.999 L217.948,287.335 L218.284,288.175 L218.284,288.721 L218.494,289.393 L218.158,290.191 L218.284,290.737 L218.074,292.669 L218.074,292.963 L218.956,292.921 L220.594,292.543 L221.392,292.627 L221.896,292.543 L222.82,292.543 Q223.156,292.375 223.534,292.375 Q223.786,292.375 224.164,292.543 z M255.706,307.201 L255.118,308.293 L253.942,308.629 Q253.186,309.049 252.598,309.133 L252.094,309.469 Q252.01,309.469 251.8,309.511 Q251.59,309.511 251.464,309.511 Q249.868,309.511 248.986,308.461 L248.734,308.167 L248.44,308.125 Q247.6,307.999 247.138,307.411 Q246.844,306.907 246.508,306.361 L246.298,306.067 L246.004,305.017 L245.5,304.303 L245.164,303.211 L244.786,302.455 L244.114,298.675 L244.114,297.373 L243.862,297.625 L243.232,298.045 Q243.19,298.759 242.602,298.759 L242.182,299.221 L241.594,299.557 L241.174,299.977 Q241.006,300.523 240.418,300.775 L239.914,301.321 L239.242,301.615 L238.738,302.245 L235.336,304.639 L233.866,305.521 L232.942,306.193 L232.354,306.361 L231.304,307.201 L230.464,307.579 L229.078,307.537 L228.28,306.655 L227.692,306.277 L227.692,305.521 L227.356,305.227 L226.936,302.665 L226.81,302.329 L226.642,300.523 L226.894,299.725 L226.768,299.221 L226.894,298.591 L226.726,296.743 L226.516,296.407 Q226.6,295.735 226.978,295.399 L226.852,295.231 L227.02,294.349 L226.726,293.803 L226.726,292.921 L227.02,292.501 L226.894,291.871 L227.188,290.695 L226.978,289.225 L227.146,288.637 L226.978,287.839 L227.398,287.377 Q227.65,286.915 228.196,286.915 L228.532,286.915 L229.54,287.209 Q229.96,287.377 230.17,287.923 Q230.506,288.133 230.842,289.015 L230.422,289.603 Q229.876,291.661 229.876,292.249 L229.876,292.375 Q229.96,292.963 230.338,293.299 Q229.75,295.777 229.75,297.331 L229.75,297.625 L230.128,298.129 L229.96,299.053 L229.876,300.313 L230.128,301.069 L229.498,301.615 Q230.17,303.169 230.17,303.799 L231.304,303.799 Q231.388,303.631 231.556,303.421 L232.186,303.379 L232.69,302.791 Q233.11,302.413 233.53,302.203 Q233.782,301.867 234.286,301.741 L235.378,301.069 L235.336,300.649 L236.302,300.481 L237.016,299.725 L237.058,299.641 L237.142,299.599 L237.436,299.263 L237.772,299.431 L238.192,299.095 L238.528,298.255 L238.864,298.297 Q239.284,297.961 239.788,297.667 L239.914,297.499 L240.166,297.247 L240.166,296.575 L240.88,296.365 L241.342,295.819 L241.804,295.609 L241.888,295.021 L242.182,295.021 Q242.35,294.811 242.728,294.643 L242.728,294.223 L243.274,294.055 L243.988,292.711 L244.324,291.703 L244.45,290.737 L244.912,290.023 L244.996,289.519 L245.08,288.427 L245.374,287.671 L246.424,286.789 L247.642,287.419 L247.936,287.755 Q248.608,288.175 249.154,288.721 L248.776,289.393 L248.818,289.939 Q248.692,290.737 248.062,291.031 L247.768,291.577 L247.768,292.249 L247.474,292.921 L247.516,294.055 Q247.348,294.307 247.138,294.307 Q247.096,294.307 247.012,294.265 Q247.642,294.643 247.642,295.483 Q247.642,295.777 247.6,295.903 L247.264,295.945 L247.39,296.365 L247.264,297.457 L247.558,298.129 L247.432,299.053 Q247.474,299.221 247.474,299.599 Q247.81,300.019 247.81,300.439 Q247.81,300.481 247.81,300.607 Q247.768,300.691 247.768,300.775 L247.936,301.279 Q248.23,302.623 248.944,304.219 L249.364,304.849 L249.49,305.101 L249.91,305.521 L250.876,306.445 L251.548,306.571 L251.8,306.151 L252.472,306.403 L252.64,306.319 Q253.144,305.941 253.774,305.941 Q254.068,305.941 255.412,306.151 z M283.468,286.621 L282.418,288.595 L281.452,288.721 L280.15,288.721 L279.436,288.847 L278.89,288.721 L276.244,288.931 L275.488,288.763 L275.32,288.805 Q274.9,288.973 273.892,289.141 L272.38,289.141 L272.044,289.015 L271.918,289.015 Q271.498,289.015 270.7,289.225 Q270.07,289.393 269.146,289.393 L268.474,289.225 L268.348,289.729 L267.844,289.729 L267.718,291.703 L267.928,292.039 L267.844,292.669 L267.844,293.761 Q267.844,295.483 267.508,296.071 L267.844,296.533 L267.592,297.751 L267.844,298.087 L267.382,298.759 L267.382,299.095 L267.13,299.557 L267.298,300.481 L267.172,302.245 L266.92,303.043 Q266.962,303.085 266.962,303.253 Q266.962,303.169 266.836,303.799 Q266.836,303.841 266.878,303.967 Q266.878,304.093 266.878,304.177 Q266.878,304.639 266.584,305.059 L266.71,305.647 Q266.71,305.941 266.668,306.025 L266.626,306.151 Q266.542,306.403 266.542,306.655 Q266.542,307.453 266.71,307.999 Q265.786,308.167 265.66,308.167 Q265.282,308.167 265.03,308.083 L264.946,308.041 Q263.854,307.789 263.854,306.025 Q263.896,305.815 263.896,305.437 Q263.896,305.101 263.812,304.492 Q263.728,303.883 263.728,303.589 Q263.728,303.169 263.854,302.875 L264.022,301.153 Q263.686,300.691 263.686,300.397 Q263.686,300.313 263.77,300.061 Q263.602,299.725 263.602,299.557 Q263.602,299.221 263.812,299.011 Q263.812,298.633 264.148,297.961 Q264.064,297.625 264.064,297.247 Q264.358,297.247 264.358,296.953 Q264.358,296.869 264.274,296.68 Q264.19,296.491 264.19,296.281 L264.316,296.449 L264.148,296.071 Q264.148,295.273 264.358,294.685 L264.358,293.467 L264.148,292.585 L264.358,290.947 L264.148,289.729 L264.232,289.309 L263.602,289.351 L263.14,289.603 L262.804,289.561 L262.804,289.729 Q261.922,289.729 261.082,289.603 L260.956,289.939 L259.318,289.393 L257.134,289.351 L255.748,289.729 Q254.068,288.301 254.068,287.671 Q254.068,287.293 254.194,286.915 L254.194,287.041 L255.118,286.243 L255.916,286.285 L258.73,286.789 L259.444,286.579 L261.586,286.621 L263.266,286.831 L264.358,286.411 L264.736,285.319 L266.416,285.739 L266.5,285.655 L266.584,285.781 L267.172,286.495 L267.34,286.537 L267.928,286.327 L269.146,286.621 Q270.952,286.285 271.288,286.285 Q271.792,286.285 272.338,286.495 Q272.464,286.495 272.842,286.537 Q273.43,286.453 273.598,286.453 L273.892,286.453 L275.32,286.285 L276.538,286.495 L276.706,286.579 L277.336,286.369 L278.218,286.579 L280.318,286.495 L281.242,286.621 z M309.718,289.897 L309.592,290.107 Q309.256,292.123 308.878,292.543 L308.794,292.795 L308.794,294.769 L308.374,295.609 L308.5,296.113 L308.08,297.793 L308.248,298.255 L307.954,299.725 L307.996,300.439 L307.702,301.363 L308.08,302.455 L307.366,303.421 L307.534,303.967 L307.198,304.555 L307.324,304.681 L307.45,306.613 L307.996,307.579 L307.282,308.125 L306.862,308.797 L305.308,308.377 L305.056,306.487 L304.804,306.403 Q304.636,304.933 304.636,303.379 L304.51,303.169 L303.796,303.043 L303.586,303.295 L302.956,302.581 L302.368,302.749 L301.444,302.077 Q300.436,301.993 299.974,301.909 L299.596,301.573 L299.428,301.615 L296.404,299.809 L296.152,299.515 L295.228,299.179 L294.682,298.465 L294.22,298.255 L293.548,297.667 L291.574,296.869 L290.314,295.357 L289.642,295.273 L289.222,294.685 Q288.298,294.097 287.584,293.299 L287.584,293.677 L287.248,295.483 L287.626,296.701 L286.996,298.759 L287.122,299.389 Q287.29,299.683 287.29,300.145 Q287.29,300.691 287.122,301.069 L287.5,301.153 L286.996,302.623 L286.996,303.547 L286.828,304.429 L287.122,304.975 L286.576,305.689 Q286.702,305.857 286.702,306.151 Q286.45,307.075 285.82,307.873 L285.064,307.873 Q283.762,307.873 283.72,306.067 L284.182,304.639 L283.972,303.967 L284.224,303.337 Q284.182,303.127 284.182,302.749 Q284.182,302.455 284.224,302.329 L283.93,301.951 L283.93,301.657 Q283.93,301.447 283.972,301.153 Q283.972,300.817 283.972,300.691 Q283.972,300.271 283.636,299.431 L283.972,298.927 L284.182,298.213 L283.972,297.037 L284.308,295.819 L284.056,295.021 L284.392,293.047 L284.308,291.619 L284.476,290.401 L284.308,290.023 L284.392,287.587 Q284.308,287.167 284.308,286.999 Q284.308,286.705 284.434,286.453 Q284.56,285.781 285.442,285.739 L285.82,285.823 L286.156,285.403 Q287.122,285.907 287.5,286.831 L287.878,286.831 L288.004,288.133 L288.55,288.511 L288.592,289.015 L289.222,289.393 L289.558,290.569 L289.768,290.779 L290.944,291.577 Q291.364,291.787 291.448,292.333 L291.532,292.501 L292.54,293.131 L293.674,294.265 L296.698,296.617 Q297.58,296.785 298.126,297.667 L299.386,298.045 L300.436,298.885 L300.94,299.011 L302.2,299.599 L303.418,299.977 Q304.09,300.607 304.678,300.859 L304.804,300.229 L305.224,299.389 L305.056,299.221 L305.266,296.911 L305.644,296.197 L305.644,296.071 L305.14,295.399 L305.644,293.677 L305.476,292.249 L305.854,289.729 L305.308,289.183 L305.854,287.545 L305.518,287.167 L305.938,286.621 L305.812,286.159 L307.828,285.193 L308.038,285.655 L309.298,285.865 Q308.962,286.663 308.962,287.083 Q308.962,287.293 309.004,287.419 Q309.34,287.881 309.382,288.259 L309.13,288.931 z M337.9,293.341 Q337.9,294.307 337.312,295.105 Q336.178,295.567 335.422,295.567 Q335.254,295.567 334.96,295.483 Q334.666,295.399 334.582,295.399 L333.49,295.945 L332.482,295.861 L331.894,296.071 L331.6,295.987 L330.844,296.407 L330.214,296.197 Q329.08,296.197 328.408,296.239 L328.576,296.197 L327.82,296.449 L327.694,296.449 L327.4,296.701 L326.812,296.533 L326.476,296.827 L325.552,296.449 L325.006,296.785 Q323.998,296.491 323.83,296.491 Q323.368,296.491 322.696,296.785 L320.806,296.953 L320.638,296.869 L319.924,296.995 L319.882,297.163 L320.302,299.263 L320.134,299.473 L320.302,299.893 L320.26,300.439 Q320.47,301.069 320.554,301.699 L321.058,302.203 L320.974,302.455 L321.814,303.505 Q323.116,304.429 323.788,304.429 L323.872,304.429 Q323.956,304.429 324.082,304.387 Q324.208,304.387 324.25,304.387 Q324.418,304.387 324.712,304.513 L325.09,304.471 Q325.636,304.345 326.644,304.177 L327.106,303.925 L327.19,303.757 L327.484,303.715 L327.82,303.505 L328.03,303.631 L328.702,303.421 L329.248,303.085 L329.458,302.791 L330.172,302.245 L330.718,302.161 L331.726,301.405 Q332.776,301.237 333.238,299.725 L333.364,299.767 L333.406,299.641 L333.952,299.599 L334.75,298.927 L335.044,298.885 Q335.17,298.843 335.338,298.843 Q336.136,298.843 336.304,300.397 L334.456,302.581 L333.994,302.707 L333.826,302.959 L333.028,303.799 L331.894,304.471 L330.97,305.353 L330.676,305.311 L330.34,305.647 L328.45,306.361 L327.694,307.201 L327.148,306.991 L326.938,307.369 L326.56,307.243 L326.35,307.453 L324.964,307.201 L323.536,307.789 L322.108,307.327 L320.302,306.487 Q317.992,305.395 316.732,300.439 L316.774,299.977 L316.396,299.011 L316.774,298.591 L316.522,297.415 L316.48,297.037 L315.766,296.239 L315.766,295.735 Q315.766,294.517 316.438,294.055 Q316.564,293.719 316.9,293.425 L316.816,293.299 L316.816,292.123 L316.69,291.535 L317.236,290.191 L317.362,289.519 L316.942,289.561 L316.774,289.561 Q316.186,289.561 315.766,289.162 Q315.346,288.763 315.346,288.217 Q315.346,287.587 316.144,286.789 L316.438,286.495 L316.816,286.327 Q317.488,286.033 317.866,286.033 L318.076,286.033 Q318.16,285.991 318.496,285.991 L318.664,285.991 L319.084,285.319 L320.974,285.445 L321.1,285.571 Q321.478,285.487 322.234,285.487 L323.074,285.277 L323.284,285.277 Q323.83,285.109 324.334,284.605 L324.964,284.941 L325.174,284.941 Q325.384,284.941 325.657,284.983 Q325.93,285.025 326.014,285.025 L330.214,284.647 L330.634,284.815 L331.222,284.689 L331.558,284.353 L332.398,284.815 L332.692,284.605 L333.616,284.983 L334.246,284.815 L334.582,285.025 L335.926,284.899 L336.22,285.109 L336.892,285.235 Q337.858,285.403 337.858,286.159 Q337.858,286.663 337.501,287.041 Q337.144,287.419 336.766,287.419 L336.598,287.419 L336.136,287.671 L335.296,287.419 L334.918,287.461 Q334.792,287.503 334.582,287.503 Q334.162,287.503 333.826,287.335 L333.7,287.167 Q333.28,287.251 333.154,287.251 Q332.986,287.251 332.734,287.167 Q332.314,287.461 331.18,287.671 Q330.592,287.671 329.878,287.629 Q329.878,287.587 330.046,287.335 L328.954,287.629 Q328.912,287.587 328.87,287.587 Q328.576,287.587 327.778,288.259 L327.232,288.007 L326.98,288.175 L325.972,287.881 L325.384,288.175 L324.544,288.175 L323.284,288.427 L322.234,288.889 L321.94,288.721 L321.394,289.099 L320.848,289.099 L320.722,289.309 L320.848,289.813 L320.134,290.653 L320.47,290.695 L320.47,291.871 L320.932,292.375 L320.554,292.711 Q320.134,293.425 320.134,293.677 Q320.134,293.845 320.386,293.929 L320.89,293.761 Q321.1,293.719 321.31,293.719 Q321.94,293.803 322.234,293.887 L322.99,293.593 L323.662,293.803 L324.04,293.719 L324.502,293.761 L325.174,293.635 Q325.51,293.719 325.72,293.719 Q325.888,293.719 326.392,293.425 Q326.728,293.593 327.358,293.593 Q327.442,293.593 327.652,293.551 Q327.862,293.551 327.988,293.551 L328.072,293.551 Q327.988,293.551 327.904,293.509 L328.03,293.509 Q328.282,293.509 329.542,293.635 Q329.668,293.593 330.844,293.551 Q331.516,293.509 331.684,293.509 Q332.314,293.509 332.902,293.551 L333.28,293.509 Q333.868,293.173 334.372,293.173 Q334.75,293.173 335.128,293.299 L335.716,293.173 L336.22,293.383 L337.9,292.963 z M367.006,285.907 Q367.006,286.159 366.544,286.537 Q366.082,286.915 366.04,287.377 Q365.83,287.755 365.452,288.049 Q365.326,288.553 364.612,288.679 L363.856,289.267 L363.31,290.275 L362.89,290.275 Q362.596,290.695 362.134,291.073 Q362.008,291.115 361.42,291.409 L360.538,292.375 L359.362,293.215 L358.984,293.341 L358.606,294.013 L357.682,294.559 L357.22,295.021 L356.8,296.071 L355.246,297.793 L354.742,298.549 L354.532,298.969 L354.784,299.389 L354.448,300.145 L354.658,300.859 L354.322,301.825 L354.406,302.413 L354.7,303.589 Q354.07,304.345 354.07,304.975 Q354.07,305.269 354.175,305.857 Q354.28,306.445 354.28,306.697 L353.944,308.545 L354.028,309.595 L353.86,309.973 L354.154,311.485 L353.818,311.989 L354.112,312.745 L353.86,313.123 L354.028,313.459 Q354.154,313.711 354.154,314.005 L354.154,314.215 L353.86,315.265 L354.112,316.399 L353.734,317.197 L354.112,317.701 L354.112,317.995 Q354.112,319.675 353.629,320.368 Q353.146,321.061 351.886,321.061 L351.508,319.045 L351.13,317.827 L351.088,317.029 L350.542,316.693 L350.92,315.853 L350.752,315.265 L350.92,314.005 L350.668,312.661 L350.794,311.611 Q350.794,311.527 350.794,311.317 Q350.752,311.107 350.752,310.981 Q350.752,310.855 350.794,310.687 Q350.794,310.519 350.794,310.435 L350.584,308.503 L350.794,307.579 L350.668,306.571 L350.92,304.891 L350.542,304.219 L350.752,303.211 L350.71,302.413 L350.374,301.657 Q350.71,300.901 350.71,300.481 Q350.71,300.229 350.626,300.103 L350.458,299.347 L350.206,298.633 L349.786,298.297 L349.534,297.919 Q348.82,297.541 347.644,296.071 L346.972,295.651 L346.384,294.559 L344.704,293.047 L344.368,292.459 L343.696,291.619 L342.436,290.611 L342.436,290.191 L341.806,289.771 Q341.638,288.721 340.924,288.721 Q339.202,287.755 339.16,285.781 L339.37,284.689 L339.874,284.689 Q340.168,284.437 340.798,284.437 Q341.428,284.437 342.562,284.815 L342.856,285.487 L343.528,285.697 L344.284,286.873 L345.376,287.671 L345.418,288.049 L346.3,289.435 L346.93,289.897 L349.24,293.089 L349.996,294.055 Q351.508,295.609 352.348,296.575 L352.348,296.449 Q352.348,295.945 352.852,295.399 L352.81,295.609 Q353.104,294.937 353.524,294.517 Q353.65,293.929 354.112,293.593 Q354.196,293.299 354.91,292.669 L355.288,292.501 L355.414,292.333 Q355.792,291.241 356.926,291.241 L357.01,291.409 L357.388,290.695 Q357.892,290.569 357.808,290.569 Q358.186,290.107 358.438,289.813 L358.732,289.267 Q359.446,288.343 360.538,288.175 L360.538,287.671 L360.832,287.335 L361.252,286.999 L361.504,286.117 Q361.63,286.327 361.84,286.327 Q362.218,286.327 362.512,285.319 L363.772,284.773 L364.444,284.101 L365.62,284.185 L366.502,283.933 L366.88,284.815 Q367.006,285.487 367.006,285.907 z"
           fill-opacity="0"
           stroke="#000000"
           stroke-width="2"
           id="path50"
           style="fill:#00ff00" />
      </g>
    </g>
  </g>
  <g
     id="Lid">
    <g
       id="g62">
      <path
         d="M174.85,57.889 L358.747,58.821 L358.734,58.821 C377.285,58.821 392.366,73.268 392.366,91.188 C391.976,100.732 386.691,109.057 379.245,114.77 C380.567,114.641 381.539,115.389 381.986,116.577 C383.383,121.704 387.793,127.297 395.219,133.682 C401.048,138.694 406.904,142.902 419.878,151.714 C420.148,151.898 420.148,151.898 420.418,152.081 C437.838,163.912 444.95,169.188 451.529,175.915 C460.645,185.236 463.859,193.941 459.842,202.54 C452.802,217.612 442.514,220.127 429.853,213.013 C425.868,210.775 421.935,207.844 416.546,203.329 C415.447,202.408 411.784,199.296 411.182,198.79 C409.189,197.111 407.697,195.9 406.327,194.865 C403.158,192.468 400.857,191.219 399.331,191.044 C391.692,190.167 385.14,192.376 374.86,198.29 C374.219,198.658 373.549,199.048 372.747,199.518 C372.434,199.702 372.114,199.89 371.683,200.144 C371.149,200.458 370.862,200.627 370.613,200.773 C363.255,205.1 359.28,207.167 354.379,208.896 C347.868,211.194 341.511,211.942 334.777,210.912 C328.106,209.892 322.467,207.484 317.296,203.722 C313.367,200.863 310.376,197.9 305.315,192.246 C305.071,191.973 304.166,190.96 303.962,190.732 C295.994,181.827 291.546,178.167 284.589,176.04 C278.957,174.317 272.748,175.611 265.358,179.696 C260.432,182.419 255.896,185.707 247.82,192.114 C239.391,198.8 237.687,200.117 234.024,202.612 C228.901,206.101 224.522,208.339 220.383,209.375 C211.777,211.529 204.051,211.354 196.447,209.174 C190.677,207.52 186.203,205.333 177.71,200.473 C177.272,200.222 177.272,200.222 176.834,199.971 C165.489,193.475 160.009,191.058 152.282,190.045 C142.963,188.823 135.404,190.466 117.694,196.318 C105.292,200.417 99.544,201.997 92.372,202.807 C82.751,203.893 74.127,202.564 65.859,198.229 C56.574,193.361 56.952,185.962 65.139,178.141 C71.277,172.277 81.74,165.749 97.463,157.479 C101.687,155.258 106.216,152.947 111.833,150.132 C113.677,149.208 126.644,142.753 130.25,140.934 C136.977,137.542 142.05,134.89 146.352,132.484 C150.945,129.495 156.439,127.242 160.269,123.184 C143.192,121.272 137.776,105.473 137.971,90.166 C138.892,70.176 154.546,57.89 174.85,57.889 z"
         filter="url(#Shadow_3)"
         fill="rgba(0,0,0,0.75)"
         id="path56" />
      <path
         d="M358.735,61.321 C375.928,61.321 389.866,74.673 389.866,91.143 C389.62,104.679 376.781,117.278 361.988,120.168 L379.574,117.234 C387.288,145.547 470.94,172.873 457.577,201.483 C441.453,236.003 412.425,190.029 399.616,188.56 C376.464,185.905 361.684,212.498 335.155,208.441 C309.762,204.558 305.818,179.919 285.32,173.649 C263.355,166.931 239.356,202.05 219.776,206.95 C189.952,214.413 177.251,190.796 152.607,187.566 C124.599,183.895 96.057,211.24 67.02,196.015 C33.67,178.53 161.372,136.747 164.383,121.342 L286.404,120.964 L164.237,120.964 C147.044,120.964 139.71,106.734 140.468,90.281 C141.392,70.232 157.644,60.39 174.838,60.39 L358.735,61.321 z"
         fill="#6D625C"
         id="path58" />
      <path
         d="M358.735,61.321 C375.928,61.321 389.866,74.673 389.866,91.143 C389.62,104.679 376.781,117.278 361.988,120.168 L379.574,117.234 C387.288,145.547 470.94,172.873 457.577,201.483 C441.453,236.003 412.425,190.029 399.616,188.56 C376.464,185.905 361.684,212.498 335.155,208.441 C309.762,204.558 305.818,179.919 285.32,173.649 C263.355,166.931 239.356,202.05 219.776,206.95 C189.952,214.413 177.251,190.796 152.607,187.566 C124.599,183.895 96.057,211.24 67.02,196.015 C33.67,178.53 161.372,136.747 164.383,121.342 L286.404,120.964 L164.237,120.964 C147.044,120.964 139.71,106.734 140.468,90.281 C141.392,70.232 157.644,60.39 174.838,60.39 L358.735,61.321 z"
         fill-opacity="0"
         stroke="#000000"
         stroke-width="5"
         stroke-linecap="round"
         stroke-linejoin="round"
         id="path60" />
    </g>
  </g>
  <path
     style="fill:#ffd5d5;stroke-width:0.715353"
     d="m 155.80426,298.09253 v -40.41746 h 110.52208 110.52208 v 40.41746 40.41746 H 266.32634 155.80426 Z m 198.72514,23.10591 c 0.53289,-0.53289 0.86036,-3.17785 0.86351,-6.9747 0.003,-3.36395 0.20904,-8.27569 0.45833,-10.91499 0.49696,-5.26163 0.98001,-5.9709 8.74852,-12.84562 3.12687,-2.76712 3.73149,-3.68374 3.53895,-5.36515 -0.24659,-2.15349 -2.353,-3.02686 -4.75519,-1.97162 -0.65991,0.28989 -1.60222,0.46219 -2.09403,0.38289 -0.49181,-0.0793 -0.89283,0.43327 -0.89117,1.13904 10e-4,0.70578 -1.94194,3.08577 -4.3191,5.28888 l -4.32211,4.00565 -4.08631,-5.24701 -4.0863,-5.247 -3.57677,0.0432 c -1.96722,0.0238 -6.15204,0.0164 -9.29959,-0.0164 -11.17045,-0.11628 -17.50687,1.92307 -16.43379,5.28917 0.25579,0.80236 0.5407,3.87315 0.63313,6.82398 0.28741,9.17519 3.99633,13.87137 10.4756,13.26405 4.98047,-0.46684 12.42095,-6.12213 11.99613,-9.11792 -0.31936,-2.25215 -3.53914,-2.61453 -5.4079,-0.60865 -1.90139,2.04089 -6.58007,4.21009 -8.17886,3.79199 -1.70577,-0.44607 -2.58423,-3.67947 -1.22886,-4.52312 0.54506,-0.33928 1.72995,-0.48434 2.63308,-0.32237 1.89086,0.33911 9.74891,-0.82462 12.12848,-1.79616 1.18613,-0.48427 1.60955,-1.24587 1.60955,-2.89508 0,-1.66063 -0.26746,-2.13529 -1.03682,-1.84006 -1.60222,0.61483 -14.43998,0.71628 -15.40201,0.12172 -2.05091,-1.26754 2.15841,-2.22602 12.65168,-2.88082 l 3.72405,-0.23239 4.67319,5.18041 c 2.57026,2.84923 4.88849,5.3957 5.15161,5.65882 0.26312,0.26313 0.57043,4.42478 0.68289,9.24813 0.26286,11.27323 0.70042,13.41952 2.73579,13.41952 0.85575,0 1.94219,-0.38629 2.41432,-0.85842 z M 217.76858,309.75627 c 0.23254,-0.37626 0.5794,-3.31548 0.7708,-6.5316 0.37887,-6.36622 0.38887,-6.39641 2.19776,-6.63807 0.68051,-0.0909 1.91282,-0.3774 2.73847,-0.63664 1.39967,-0.43949 1.52919,-0.14115 1.91549,4.41237 0.50762,5.98357 0.86103,6.94656 2.96204,8.07099 1.98881,1.06438 3.59615,0.35845 10.12057,-4.44487 l 4.33827,-3.19387 1.22194,3.44045 c 1.63981,4.61697 4.52466,6.69291 8.55051,6.15293 3.26157,-0.43746 4.84498,-1.95393 4.28322,-4.10212 -0.28443,-1.08766 -0.98938,-1.39746 -3.17993,-1.39746 -2.53542,0 -2.91725,-0.24597 -3.85101,-2.48076 -1.33579,-3.19701 -1.32849,-8.95394 0.0147,-11.54285 0.97118,-1.87193 0.93446,-2.15039 -0.48237,-3.65854 -2.70497,-2.87931 -4.96477,-1.9313 -5.90761,2.4783 -0.51888,2.42664 -6.9265,9.48103 -8.6118,9.48103 -0.50531,0 -1.10404,0.48286 -1.33052,1.07303 -1.41149,3.6783 -2.66161,-1.62628 -1.8271,-7.75288 0.63663,-4.67387 -0.62218,-7.10894 -3.50299,-6.77622 -1.65696,0.19137 -1.95308,0.59246 -2.14445,2.90461 -0.21912,2.64754 -0.26201,2.68257 -3.28447,2.68257 h -3.06245 l -0.13145,-3.71399 c -0.0723,-2.04269 -0.27292,-3.85546 -0.44583,-4.02836 -0.17291,-0.17291 -1.42415,-0.38176 -2.78055,-0.46411 -3.04683,-0.18498 -4.25195,1.87053 -3.57578,6.09905 l 0.45138,2.82276 h -6.17194 -6.17193 v -3.56027 c 0,-2.97554 -0.28394,-3.74632 -1.72883,-4.69305 -1.4496,-0.94982 -1.96953,-0.98246 -3.21909,-0.20209 -1.43491,0.89612 -1.89642,2.85284 -1.6468,6.98214 0.058,0.9602 -0.24189,2.16444 -0.66651,2.67608 -0.50597,0.60966 -0.56872,2.10355 -0.18207,4.33468 0.32448,1.87244 0.52998,3.94654 0.45666,4.60913 -0.20611,1.86265 1.78831,6.0802 3.11622,6.58977 2.19054,0.84059 3.15507,-0.91295 3.15507,-5.736 0,-2.50921 0.24143,-4.57664 0.53652,-4.59429 2.66645,-0.15946 8.80038,-0.7737 10.40686,-1.04213 2.00032,-0.33423 2.00123,-0.33249 1.5996,3.05247 -0.22103,1.86279 -0.0625,5.02978 0.35241,7.03776 0.69313,3.35492 0.89775,3.62344 2.52425,3.31251 0.97349,-0.18609 1.96024,-0.6462 2.19278,-1.02246 z m 91.09528,-0.90211 c 0.47549,-0.57293 0.67518,-1.34806 0.44376,-1.7225 -0.23142,-0.37445 -0.0631,-3.84907 0.37409,-7.72138 1.402,-12.41845 1.38278,-14.1898 -0.16443,-15.15604 -1.05688,-0.66004 -1.74494,-0.66476 -2.96879,-0.0204 -2.33875,1.23141 -2.47587,1.65786 -2.55737,7.95308 -0.0409,3.16364 -0.21193,5.88954 -0.37995,6.05756 -0.62538,0.62538 -6.41827,-2.85775 -9.55766,-5.7468 -1.78667,-1.64419 -4.03184,-4.22791 -4.98927,-5.7416 -1.43124,-2.26277 -2.01761,-2.66172 -3.29743,-2.24352 -1.96857,0.64326 -16.03665,0.59905 -18.65709,-0.0586 -1.13411,-0.28465 -2.646,-0.13002 -3.57145,0.36527 -0.90523,0.48446 -3.45395,0.75819 -5.84656,0.6279 -3.97778,-0.2166 -4.25644,-0.12714 -4.47805,1.43757 -0.279,1.96983 1.86265,4.62722 3.28828,4.08015 0.5479,-0.21025 2.25865,-0.18039 3.80168,0.0663 l 2.8055,0.44862 -0.46118,7.75927 c -0.51143,8.60497 -0.0671,9.9414 3.30559,9.9414 1.90277,0 1.96993,-0.14048 2.47935,-5.18631 0.28799,-2.85247 0.58671,-6.86057 0.66382,-8.90688 0.0771,-2.04632 0.29011,-3.87029 0.47331,-4.05328 0.1832,-0.18299 3.28667,-0.55776 6.89659,-0.83282 l 6.5635,-0.50012 -0.34498,8.72303 c -0.36144,9.13921 0.0386,10.75638 2.6605,10.75638 1.85109,0 3.00148,-2.54434 3.2318,-7.14784 0.10842,-2.16707 0.21635,-4.32448 0.23984,-4.79424 0.0235,-0.46976 2.37655,0.70187 5.22902,2.60362 2.85247,1.90176 5.79563,3.57374 6.54035,3.71552 1.44664,0.27543 2.16757,1.23661 3.27848,4.37107 0.78472,2.21412 3.51046,2.7188 4.99875,0.92553 z m -124.44547,-1.95432 c 4.98873,-2.38349 7.68732,-4.71376 8.25735,-7.13032 0.73392,-3.11133 -1.95061,-3.41189 -5.79771,-0.64912 -4.63496,3.32858 -7.91601,4.50173 -11.27601,4.03176 -1.59495,-0.22309 -3.16966,-0.80895 -3.49935,-1.30192 -1.45733,-2.17905 0.68439,-9.33522 3.50343,-11.70608 1.33986,-1.12684 4.52017,-0.36927 4.52017,1.07673 0,1.82909 2.07285,4.3679 3.56623,4.3679 3.0746,0 4.47703,-3.70276 2.79809,-7.38764 -0.92181,-2.02315 -6.01407,-4.77337 -8.8383,-4.77337 -2.76882,0 -6.62699,1.99127 -8.14056,4.20148 -1.9473,2.84356 -4.40788,9.32436 -4.40788,11.60966 0,3.39504 2.63348,7.55159 5.51187,8.69965 3.86965,1.54342 9.2448,1.13891 13.80267,-1.03873 z"
     id="path77" />
</svg>
