<?xml version="1.0" encoding="UTF-8"?>
<!DOCTYPE svg PUBLIC "-//W3C//DTD SVG 1.1//EN" "http://www.w3.org/Graphics/SVG/1.1/DTD/svg11.dtd">
<svg version="1.1" xmlns="http://www.w3.org/2000/svg" xmlns:xlink="http://www.w3.org/1999/xlink" x="0" y="0" width="500" height="500" viewBox="0, 0, 500, 500">
  <defs>
    <filter id="Shadow_1">
      <feGaussianBlur in="SourceAlpha" stdDeviation="2.5"/>
      <feOffset dx="0" dy="2" result="offsetblur"/>
      <feFlood flood-color="#000000"/>
      <feComposite in2="offsetblur" operator="in"/>
    </filter>
    <filter id="Shadow_2">
      <feGaussianBlur in="SourceAlpha" stdDeviation="2.5"/>
      <feOffset dx="0" dy="2" result="offsetblur"/>
      <feFlood flood-color="#000000"/>
      <feComposite in2="offsetblur" operator="in"/>
    </filter>
    <filter id="Shadow_3">
      <feGaussianBlur in="SourceAlpha" stdDeviation="2.5"/>
      <feOffset dx="0" dy="2" result="offsetblur"/>
      <feFlood flood-color="#000000"/>
      <feComposite in2="offsetblur" operator="in"/>
    </filter>
  </defs>
  <g id="Cucumber">
    <g id="Cucumber">
      <g id="Cucumber">
        <g id="Body">
          <g id="Body">
            <path d="M398.92,112.35 L403.583,112.391 C431.538,113.237 449.779,125.451 459.694,151.153 C466.89,169.808 461.952,191.769 445.333,212.535 C421.991,240.905 388.348,257.813 354.631,270.664 C350.485,272.337 346.364,274.069 342.246,275.807 C337.042,278.015 320.009,285.38 318.621,285.975 C309.586,289.847 302.859,292.612 296.49,295.025 C280.463,301.094 267.844,304.396 256.465,305.073 C229.258,306.692 209.5,292.729 194.367,258.338 C178.351,221.936 177.593,197.495 190.698,180.666 C196.465,173.26 204.84,167.375 216.242,162.249 C225.4,158.133 235.649,154.757 252.05,150.135 C253.336,149.773 269.618,145.253 274.541,143.842 C283.382,141.306 290.75,139.032 297.802,136.609 C298.41,136.401 299.014,136.191 299.614,135.981 C325.386,127.41 351.304,118.054 378.315,114.153 C388.805,112.637 388.653,112.874 398.92,112.35 z" filter="url(#Shadow_1)" fill="rgba(0,0,0,0.75)"/>
            <path d="M353.705,268.341 C282.18,297.297 230.063,333.255 196.656,257.331 C153.936,160.241 227.68,163.815 300.441,138.34 C385.716,108.484 437.703,101.092 457.361,152.053 C470.599,186.371 441.395,236.091 353.705,268.341 z" fill="#168519"/>
            <path d="M353.705,268.341 C282.18,297.297 230.063,333.255 196.656,257.331 C153.936,160.241 227.68,163.815 300.441,138.34 C385.716,108.484 437.703,101.092 457.361,152.053 C470.599,186.371 441.395,236.091 353.705,268.341 z" fill-opacity="0" stroke="#000000" stroke-width="5" stroke-linecap="square" stroke-linejoin="bevel"/>
          </g>
          <path d="M450.906,168.125 L449.76,169.13 L447.551,171.225 L445.467,173.476 L443.373,175.776 L441.23,178.092 L439.176,180.548 L437.102,183.048 L434.975,185.556 L432.769,188.046 L430.485,190.518 L428.126,192.97 L425.695,195.402 L423.193,197.812 L420.624,200.2 L417.988,202.565 L415.289,204.907 L412.529,207.224 L409.709,209.516 L406.833,211.782 L403.902,214.022 L400.918,216.234 L397.886,218.418 L394.805,220.573 L391.679,222.699 L388.509,224.794 L385.299,226.859 L382.051,228.891 L378.765,230.892 L375.446,232.859 L372.095,234.792 L368.714,236.691 L365.306,238.555 L361.874,240.382 L358.418,242.173 L354.942,243.926 L351.448,245.642 L347.939,247.318 L344.414,248.956 L340.88,250.553 L337.336,252.109 L333.785,253.623 L330.23,255.096 L326.672,256.525 L323.115,257.911 L319.56,259.252 L316.01,260.549 L312.467,261.799 L308.932,263.004 L305.41,264.161 L301.902,265.27 L298.41,266.331 L294.936,267.343 L291.483,268.304 L288.054,269.216 L284.65,270.076 L281.274,270.884 L277.928,271.64 L274.615,272.343 L271.337,272.991 L268.097,273.585 L264.897,274.124 L261.739,274.607 L258.626,275.034 L255.561,275.403 L254.113,275.648 L254.113,275.648 C251.94,275.882 251.737,278.416 253.66,281.308 C255.582,284.2 258.902,286.354 261.075,286.12 L262.702,286.033 L265.856,285.652 L269.052,285.214 L272.288,284.718 L275.563,284.166 L278.873,283.559 L282.217,282.897 L285.593,282.18 L288.998,281.411 L292.432,280.588 L295.891,279.714 L299.373,278.788 L302.878,277.812 L306.4,276.785 L309.94,275.71 L313.495,274.585 L317.062,273.413 L320.64,272.194 L324.226,270.928 L327.818,269.616 L331.413,268.259 L335.011,266.857 L338.608,265.412 L342.202,263.923 L345.791,262.392 L349.373,260.819 L352.946,259.204 L356.507,257.55 L360.054,255.855 L363.585,254.121 L367.098,252.349 L370.59,250.539 L374.059,248.692 L377.504,246.808 L380.921,244.889 L384.308,242.934 L387.665,240.944 L390.987,238.921 L394.273,236.865 L397.521,234.776 L400.728,232.655 L403.893,230.503 L407.012,228.32 L410.085,226.107 L413.107,223.866 L416.078,221.595 L418.995,219.296 L421.856,216.97 L424.659,214.616 L427.401,212.238 L430.08,209.833 L432.694,207.402 L435.241,204.948 L437.717,202.47 L440.123,199.969 L442.454,197.445 L444.709,194.899 L446.885,192.33 L448.953,189.715 L450.873,187.02 L452.533,184.148 L454.066,181.227 L455.428,178.223 L456.48,175.032 L456.895,173.383 C457.469,172.405 456.594,170.435 454.941,168.983 C453.287,167.531 451.48,167.147 450.906,168.125 L450.906,168.125" fill="#085A0B"/>
          <path d="M450.191,149.015 L448.547,149.496 L445.855,151.101 L443.383,152.983 L440.888,154.894 L438.372,156.837 L435.819,158.79 L433.234,160.757 L430.611,162.732 L427.954,164.716 L425.259,166.701 L422.533,168.693 L419.767,170.682 L416.972,172.674 L414.14,174.662 L411.275,176.646 L408.381,178.628 L405.453,180.601 L402.52,182.595 L399.568,184.59 L396.585,186.574 L393.571,188.543 L390.549,190.52 L387.512,192.496 L384.448,194.455 L381.358,196.395 L378.244,198.317 L375.105,200.218 L371.944,202.098 L368.76,203.955 L365.556,205.788 L362.332,207.596 L359.09,209.377 L355.829,211.131 L352.551,212.856 L349.259,214.552 L345.951,216.216 L342.63,217.848 L339.296,219.447 L335.95,221.012 L332.594,222.54 L329.229,224.032 L325.854,225.486 L322.473,226.9 L319.085,228.274 L315.692,229.607 L312.294,230.897 L308.893,232.143 L305.49,233.344 L302.086,234.498 L298.682,235.606 L295.279,236.664 L291.878,237.673 L288.48,238.632 L285.087,239.538 L281.698,240.391 L278.316,241.19 L274.943,241.933 L271.578,242.619 L268.222,243.248 L264.878,243.819 L261.545,244.329 L258.227,244.778 L254.949,245.203 L251.82,245.769 L250.403,246.227 L250.403,246.227 C248.416,246.394 248.183,248.644 249.881,251.253 C251.58,253.862 254.569,255.842 256.556,255.676 C256.556,255.676 256.556,255.676 256.556,255.676 L258.469,255.852 L262.021,255.759 L265.449,255.398 L268.861,254.935 L272.28,254.411 L275.708,253.826 L279.142,253.181 L282.582,252.479 L286.027,251.719 L289.477,250.904 L292.929,250.034 L296.384,249.111 L299.84,248.136 L303.298,247.11 L306.754,246.034 L310.21,244.91 L313.663,243.738 L317.113,242.521 L320.559,241.258 L324.001,239.951 L327.436,238.602 L330.865,237.211 L334.285,235.78 L337.696,234.31 L341.099,232.801 L344.49,231.256 L347.869,229.676 L351.236,228.061 L354.59,226.413 L357.929,224.733 L361.253,223.021 L364.559,221.28 L367.848,219.511 L371.119,217.714 L374.37,215.891 L377.601,214.043 L380.81,212.17 L383.997,210.276 L387.161,208.359 L390.3,206.422 L393.414,204.466 L396.502,202.492 L399.562,200.501 L402.58,198.479 L405.55,196.421 L408.489,194.35 L411.397,192.267 L414.26,190.16 L417.061,188.012 L419.828,185.856 L422.554,183.688 L425.242,181.51 L427.891,179.326 L430.493,177.131 L433.057,174.933 L435.571,172.725 L438.042,170.515 L440.462,168.298 L442.834,166.077 L445.149,163.847 L447.411,161.615 L449.602,159.362 L451.722,157.093 L453.526,154.563 L454.092,152.984 C454.092,152.984 454.092,152.984 454.092,152.984 C454.654,152.459 454.237,151.145 453.159,150.049 C452.082,148.953 450.753,148.49 450.191,149.015 L450.191,149.015" fill="#085A0B"/>
          <path d="M443.553,136.467 L440.388,137.573 L434.098,139.816 L427.854,142.083 L421.663,144.387 L412.446,147.882 L400.266,152.623 L388.175,157.445 L376.134,162.338 L364.101,167.288 L352.037,172.287 L339.906,177.328 L330.748,181.141 L324.607,183.698 L318.428,186.263 L312.211,188.841 L305.953,191.432 L299.65,194.037 L293.3,196.659 L286.902,199.3 L280.455,201.967 L273.961,204.665 L267.422,207.406 L260.87,210.232 L254.275,213.114 L247.757,216.209 L244.519,217.827 L244.519,217.827 C243.501,218.186 243.658,219.725 244.869,221.266 C246.08,222.807 247.887,223.766 248.905,223.408 C248.905,223.408 248.905,223.408 248.905,223.408 L252.742,222.533 L260.216,220.621 L267.412,218.467 L274.46,216.231 L281.34,213.887 L288.091,211.478 L294.729,209.018 L301.262,206.516 L307.701,203.978 L314.054,201.411 L320.33,198.818 L326.532,196.202 L332.669,193.567 L338.751,190.919 L347.772,186.92 L359.642,181.546 L371.381,176.148 L383.029,170.736 L394.626,165.316 L406.209,159.893 L417.816,154.474 L426.56,150.415 L432.42,147.717 L438.298,145.013 L444.213,142.317 L447.184,140.967 C447.985,140.646 447.822,139.378 446.82,138.135 C445.817,136.893 444.355,136.146 443.553,136.467 L443.553,136.467" fill="#085A0B" id="Shape"/>
          <path d="M432.604,125.525 L430.408,124.889 L426.138,123.815 L422.663,123.951 L419.232,124.137 L415.837,124.364 L412.495,124.658 L409.184,124.985 L405.963,125.434 L402.788,125.937 L399.635,126.464 L396.506,127.015 L393.399,127.588 L390.314,128.183 L387.248,128.802 L384.203,129.441 L381.176,130.103 L376.675,131.133 L370.73,132.58 L364.843,134.107 L359.011,135.71 L353.229,137.388 L347.489,139.136 L341.786,140.952 L336.114,142.833 L330.466,144.776 L324.835,146.779 L319.217,148.837 L313.603,150.949 L307.988,153.112 L302.367,155.322 L296.731,157.577 L291.075,159.875 L285.393,162.211 L279.678,164.584 L273.924,166.99 L268.124,169.427 L262.274,171.892 L256.365,174.382 L250.392,176.894 L244.348,179.425 L241.794,181.306 L241.794,181.306 C240.187,181.976 240.54,184.554 242.582,187.066 C244.625,189.577 247.583,191.07 249.19,190.4 L252.741,189.735 L258.79,187.202 L264.767,184.688 L270.674,182.199 L276.523,179.735 L282.315,177.301 L288.06,174.899 L293.762,172.531 L299.428,170.201 L305.064,167.912 L310.677,165.666 L316.273,163.466 L321.857,161.314 L327.437,159.215 L333.018,157.169 L338.607,155.182 L344.21,153.254 L349.833,151.389 L355.482,149.59 L361.165,147.858 L366.886,146.198 L372.654,144.612 L378.472,143.102 L384.353,141.671 L388.807,140.651 L391.795,139.998 L394.801,139.366 L397.826,138.756 L400.87,138.168 L403.935,137.602 L407.021,137.059 L410.128,136.54 L413.26,136.043 L416.393,135.541 L419.486,134.965 L422.599,134.405 L425.712,133.829 L428.843,133.262 L431.987,132.696 L434.392,130.972 L435.556,130.031 C435.556,130.031 435.556,130.031 435.556,130.031 C436.5,129.945 436.604,128.867 435.789,127.622 C434.974,126.378 433.548,125.439 432.604,125.525 L432.604,125.525" fill="#085A0B"/>
        </g>
        <g id="Face">
          <path d="M267.487,296.562 C233.143,308.091 211.367,283.858 197.45,248.235 C184.08,214.014 177.457,181.388 227.045,167.99 C254.401,160.599 275.964,186.769 286.866,221.987 C297.768,257.205 294.35,287.543 267.487,296.562 z" fill="#98E374"/>
          <path d="M267.487,296.562 C233.143,308.091 211.367,283.858 197.45,248.235 C184.08,214.014 177.457,181.388 227.045,167.99 C254.401,160.599 275.964,186.769 286.866,221.987 C297.768,257.205 294.35,287.543 267.487,296.562 z" fill-opacity="0" stroke="#60A94D" stroke-width="5" stroke-linecap="square" stroke-linejoin="bevel"/>
        </g>
        <g id="Seeds">
          <g id="Shape">
            <path d="M232.464,229.171 C229.181,229.747 220.761,224.443 218.034,220.069 C215.306,215.696 217.201,212.239 220.203,210.367 C223.204,208.495 227.561,207.858 229.93,212.435 C232.358,217.127 233.49,221.848 232.46,229.137 z" fill="#7ACA61"/>
            <path d="M232.464,229.171 C229.181,229.747 220.761,224.443 218.034,220.069 C215.306,215.696 217.201,212.239 220.203,210.367 C223.204,208.495 227.561,207.858 229.93,212.435 C232.358,217.127 233.49,221.848 232.46,229.137 z" fill-opacity="0" stroke="#168519" stroke-width="2" stroke-linecap="square" stroke-linejoin="bevel"/>
          </g>
          <g>
            <path d="M239.813,228.694 C238.287,225.73 240.848,216.114 244.213,212.209 C247.578,208.305 251.442,209.087 254.122,211.396 C256.801,213.706 258.705,217.676 255.039,221.298 C251.281,225.012 247.11,227.496 239.844,228.68 z" fill="#7ACA61"/>
            <path d="M239.813,228.694 C238.287,225.73 240.848,216.114 244.213,212.209 C247.578,208.305 251.442,209.087 254.122,211.396 C256.801,213.706 258.705,217.676 255.039,221.298 C251.281,225.012 247.11,227.496 239.844,228.68 z" fill-opacity="0" stroke="#168519" stroke-width="2" stroke-linecap="square" stroke-linejoin="bevel"/>
          </g>
          <g>
            <path d="M242.891,236.294 C244.843,233.592 254.577,231.523 259.581,232.756 C264.586,233.989 265.638,237.788 264.792,241.223 C263.946,244.658 261.267,248.153 256.378,246.524 C251.365,244.853 247.262,242.259 242.917,236.316 z" fill="#7ACA61"/>
            <path d="M242.891,236.294 C244.843,233.592 254.577,231.523 259.581,232.756 C264.586,233.989 265.638,237.788 264.792,241.223 C263.946,244.658 261.267,248.153 256.378,246.524 C251.365,244.853 247.262,242.259 242.917,236.316 z" fill-opacity="0" stroke="#168519" stroke-width="2" stroke-linecap="square" stroke-linejoin="bevel"/>
          </g>
          <g>
            <path d="M232.782,233.967 C233.444,237.234 228.363,245.79 224.062,248.631 C219.762,251.473 216.256,249.669 214.306,246.717 C212.356,243.766 211.605,239.427 216.118,236.939 C220.745,234.389 225.435,233.134 232.748,233.972 z" fill="#7ACA61"/>
            <path d="M232.782,233.967 C233.444,237.234 228.363,245.79 224.062,248.631 C219.762,251.473 216.256,249.669 214.306,246.717 C212.356,243.766 211.605,239.427 216.118,236.939 C220.745,234.389 225.435,233.134 232.748,233.972 z" fill-opacity="0" stroke="#168519" stroke-width="2" stroke-linecap="square" stroke-linejoin="bevel"/>
          </g>
          <g>
            <path d="M237.915,241.686 C241.207,242.212 247.438,249.97 248.591,254.994 C249.744,260.018 246.826,262.668 243.378,263.46 C239.93,264.251 235.603,263.433 234.856,258.334 C234.09,253.107 234.558,248.275 237.908,241.719 z" fill="#7ACA61"/>
            <path d="M237.915,241.686 C241.207,242.212 247.438,249.97 248.591,254.994 C249.744,260.018 246.826,262.668 243.378,263.46 C239.93,264.251 235.603,263.433 234.856,258.334 C234.09,253.107 234.558,248.275 237.908,241.719 z" fill-opacity="0" stroke="#168519" stroke-width="2" stroke-linecap="square" stroke-linejoin="bevel"/>
          </g>
        </g>
      </g>
      <g id="Back_Slice">
        <g>
          <path d="M135.842,208.527 C180.555,208.659 205.048,223.521 205.532,255.218 C205.947,282.394 176.122,305.152 135.218,312.748 C92.015,320.772 57.524,293.745 62.843,257.66 C67.554,225.7 93.436,208.401 135.842,208.527 z" filter="url(#Shadow_2)" fill="rgba(0,0,0,0.75)"/>
          <path d="M134.853,310.782 C91.851,318.768 59.854,291.65 64.822,257.951 C69.368,227.113 94.309,210.404 135.836,210.527 C176.58,210.647 203.041,223.059 203.533,255.248 C203.952,282.749 172.206,303.845 134.853,310.782 z" fill="#168519"/>
          <path d="M134.853,310.782 C91.851,318.768 59.854,291.65 64.822,257.951 C69.368,227.113 94.309,210.404 135.836,210.527 C176.58,210.647 203.041,223.059 203.533,255.248 C203.952,282.749 172.206,303.845 134.853,310.782 z" fill-opacity="0" stroke="#000000" stroke-width="4" stroke-linecap="square" stroke-linejoin="bevel"/>
        </g>
        <g id="Face">
          <path d="M76.105,254.428 C88.636,277.536 113.765,293.05 149.074,287.979 C183.869,282.982 207.968,277.228 197.191,240.644 C191.77,222.242 151.287,210.287 120.872,215.332 C89.355,220.561 67.189,237.987 76.105,254.428 z" fill="#98E374"/>
          <path d="M76.105,254.428 C88.636,277.536 113.765,293.05 149.074,287.979 C183.869,282.982 207.968,277.228 197.191,240.644 C191.77,222.242 151.287,210.287 120.872,215.332 C89.355,220.561 67.189,237.987 76.105,254.428 z" fill-opacity="0" stroke="#60A94D" stroke-width="5" stroke-linecap="square" stroke-linejoin="bevel"/>
        </g>
        <g id="Seeds">
          <g id="Shape">
            <path d="M143.966,247.678 C145.876,249.302 153.977,249.72 157.855,248.388 C161.733,247.055 162.105,244.39 160.994,242.161 C159.883,239.932 157.288,237.846 153.553,239.434 C149.723,241.062 146.742,243.221 143.985,247.66 z" fill="#7ACA61"/>
            <path d="M143.966,247.678 C145.876,249.302 153.977,249.72 157.855,248.388 C161.733,247.055 162.105,244.39 160.994,242.161 C159.883,239.932 157.288,237.846 153.553,239.434 C149.723,241.062 146.742,243.221 143.985,247.66 z" fill-opacity="0" stroke="#168519" stroke-width="2" stroke-linecap="square" stroke-linejoin="bevel"/>
          </g>
          <g>
            <path d="M138.276,245.451 C140.84,244.709 144.383,238.322 144.343,234.497 C144.304,230.673 141.427,229.036 138.482,228.826 C135.537,228.615 132.191,229.685 132.574,233.521 C132.966,237.453 134.281,240.961 138.263,245.427 z" fill="#7ACA61"/>
            <path d="M138.276,245.451 C140.84,244.709 144.383,238.322 144.343,234.497 C144.304,230.673 141.427,229.036 138.482,228.826 C135.537,228.615 132.191,229.685 132.574,233.521 C132.966,237.453 134.281,240.961 138.263,245.427 z" fill-opacity="0" stroke="#168519" stroke-width="2" stroke-linecap="square" stroke-linejoin="bevel"/>
          </g>
          <g id="Shape">
            <path d="M134.938,247.675 C133.939,245.488 126.716,242.054 122.552,241.793 C118.388,241.532 116.817,243.796 116.807,246.227 C116.796,248.657 118.209,251.519 122.361,251.496 C126.617,251.472 130.342,250.648 134.913,247.683 z" fill="#7ACA61"/>
            <path d="M134.938,247.675 C133.939,245.488 126.716,242.054 122.552,241.793 C118.388,241.532 116.817,243.796 116.807,246.227 C116.796,248.657 118.209,251.519 122.361,251.496 C126.617,251.472 130.342,250.648 134.913,247.683 z" fill-opacity="0" stroke="#168519" stroke-width="2" stroke-linecap="square" stroke-linejoin="bevel"/>
          </g>
          <g>
            <path d="M142.458,253.024 C141.63,255.173 144.96,261.46 148.175,263.801 C151.389,266.142 154.381,265.259 156.22,263.449 C158.059,261.638 159.056,258.772 155.638,256.65 C152.133,254.475 148.462,253.171 142.485,253.031 z" fill="#7ACA61"/>
            <path d="M142.458,253.024 C141.63,255.173 144.96,261.46 148.175,263.801 C151.389,266.142 154.381,265.259 156.22,263.449 C158.059,261.638 159.056,258.772 155.638,256.65 C152.133,254.475 148.462,253.171 142.485,253.031 z" fill-opacity="0" stroke="#168519" stroke-width="2" stroke-linecap="square" stroke-linejoin="bevel"/>
          </g>
          <g>
            <path d="M136.162,253.914 C133.358,253.463 126.417,257.331 124.265,260.551 C122.114,263.772 123.846,266.347 126.459,267.756 C129.071,269.165 132.787,269.67 134.626,266.296 C136.512,262.837 137.299,259.348 136.16,253.939 z" fill="#7ACA61"/>
            <path d="M136.162,253.914 C133.358,253.463 126.417,257.331 124.265,260.551 C122.114,263.772 123.846,266.347 126.459,267.756 C129.071,269.165 132.787,269.67 134.626,266.296 C136.512,262.837 137.299,259.348 136.16,253.939 z" fill-opacity="0" stroke="#168519" stroke-width="2" stroke-linecap="square" stroke-linejoin="bevel"/>
          </g>
        </g>
      </g>
      <g id="Slice">
        <g>
          <path d="M215.343,246.199 C250.758,246.688 291.251,267.732 297.449,305.642 C301.809,339.406 266.683,373.299 223.892,378.758 C196.352,382.271 174.774,376.275 160.031,362.392 C147.134,350.249 140.166,332.534 139.729,313.223 C138.742,269.567 157.794,249.483 211.512,246.335 L215.343,246.199 z" filter="url(#Shadow_3)" fill="rgba(0,0,0,0.75)"/>
          <path d="M223.639,376.774 C166.09,384.116 142.525,348.395 141.729,313.178 C140.863,274.927 154.535,251.677 211.629,248.332 C251.738,245.982 291.298,273.614 295.466,305.899 C299.755,339.115 264.502,371.561 223.639,376.774 z" fill="#168519"/>
          <path d="M223.639,376.774 C166.09,384.116 142.525,348.395 141.729,313.178 C140.863,274.927 154.535,251.677 211.629,248.332 C251.738,245.982 291.298,273.614 295.466,305.899 C299.755,339.115 264.502,371.561 223.639,376.774 z" fill-opacity="0" stroke="#000000" stroke-width="4" stroke-linecap="square" stroke-linejoin="bevel"/>
        </g>
        <g id="Face">
          <path d="M286,314.492 C269.494,344.272 239.556,362.205 200.243,350.98 C161.503,339.918 134.907,329.15 150.816,280.886 C158.818,256.609 205.714,245.391 239.508,255.979 C274.526,266.95 297.745,293.304 286,314.492 z" fill="#98E374"/>
          <path d="M286,314.492 C269.494,344.272 239.556,362.205 200.243,350.98 C161.503,339.918 134.907,329.15 150.816,280.886 C158.818,256.609 205.714,245.391 239.508,255.979 C274.526,266.95 297.745,293.304 286,314.492 z" fill-opacity="0" stroke="#60A94D" stroke-width="5" stroke-linecap="square" stroke-linejoin="bevel"/>
        </g>
        <g id="Seeds">
          <g id="Shape">
            <path d="M209.469,297.236 C207.23,299.337 198.042,299.446 193.716,297.413 C189.39,295.381 189.094,291.736 190.457,288.767 C191.82,285.799 194.855,283.11 199.008,285.481 C203.265,287.912 206.537,291.018 209.448,297.211 z" fill="#7ACA61"/>
            <path d="M209.469,297.236 C207.23,299.337 198.042,299.446 193.716,297.413 C189.39,295.381 189.094,291.736 190.457,288.767 C191.82,285.799 194.855,283.11 199.008,285.481 C203.265,287.912 206.537,291.018 209.448,297.211 z" fill-opacity="0" stroke="#168519" stroke-width="2" stroke-linecap="square" stroke-linejoin="bevel"/>
          </g>
          <g>
            <path d="M216.419,297.34 C213.881,295.364 212.126,285.649 213.419,280.681 C214.712,275.712 218.367,274.709 221.63,275.592 C224.893,276.475 228.172,279.183 226.503,284.031 C224.792,289.002 222.219,293.057 216.44,297.313 z" fill="#7ACA61"/>
            <path d="M216.419,297.34 C213.881,295.364 212.126,285.649 213.419,280.681 C214.712,275.712 218.367,274.709 221.63,275.592 C224.893,276.475 228.172,279.183 226.503,284.031 C224.792,289.002 222.219,293.057 216.44,297.313 z" fill-opacity="0" stroke="#168519" stroke-width="2" stroke-linecap="square" stroke-linejoin="bevel"/>
          </g>
          <g>
            <path d="M224.087,299.358 C225.709,296.729 234.52,294.2 239.195,295.03 C243.871,295.86 245.078,299.319 244.518,302.558 C243.958,305.797 241.718,309.207 237.124,308.002 C232.413,306.767 228.48,304.617 224.112,299.377 z" fill="#7ACA61"/>
            <path d="M224.087,299.358 C225.709,296.729 234.52,294.2 239.195,295.03 C243.871,295.86 245.078,299.319 244.518,302.558 C243.958,305.797 241.718,309.207 237.124,308.002 C232.413,306.767 228.48,304.617 224.112,299.377 z" fill-opacity="0" stroke="#168519" stroke-width="2" stroke-linecap="square" stroke-linejoin="bevel"/>
          </g>
          <g>
            <path d="M211.291,304.413 C212.005,307.428 207.603,315.54 203.737,318.316 C199.87,321.093 196.587,319.528 194.697,316.848 C192.808,314.167 191.978,310.159 196.051,307.704 C200.228,305.187 204.503,303.871 211.26,304.418 z" fill="#7ACA61"/>
            <path d="M211.291,304.413 C212.005,307.428 207.603,315.54 203.737,318.316 C199.87,321.093 196.587,319.528 194.697,316.848 C192.808,314.167 191.978,310.159 196.051,307.704 C200.228,305.187 204.503,303.871 211.26,304.418 z" fill-opacity="0" stroke="#168519" stroke-width="2" stroke-linecap="square" stroke-linejoin="bevel"/>
          </g>
          <g>
            <path d="M218.097,307.454 C221.298,307.825 227.797,315.309 229.232,320.291 C230.667,325.273 228.03,328.068 224.764,329.024 C221.497,329.979 217.281,329.364 216.231,324.287 C215.156,319.083 215.293,314.217 218.092,307.488 z" fill="#7ACA61"/>
            <path d="M218.097,307.454 C221.298,307.825 227.797,315.309 229.232,320.291 C230.667,325.273 228.03,328.068 224.764,329.024 C221.497,329.979 217.281,329.364 216.231,324.287 C215.156,319.083 215.293,314.217 218.092,307.488 z" fill-opacity="0" stroke="#168519" stroke-width="2" stroke-linecap="square" stroke-linejoin="bevel"/>
          </g>
        </g>
      </g>
      <path d="M261.133,260.104 C264.029,261.553 269.094,264.876 272.727,267.716" fill-opacity="0" stroke="#98E374" stroke-width="5" stroke-linecap="square" stroke-linejoin="bevel"/>
    </g>
  </g>
</svg>
