<?xml version="1.0" encoding="UTF-8"?>
<!DOCTYPE svg PUBLIC "-//W3C//DTD SVG 1.1//EN" "http://www.w3.org/Graphics/SVG/1.1/DTD/svg11.dtd">
<svg version="1.1" xmlns="http://www.w3.org/2000/svg" xmlns:xlink="http://www.w3.org/1999/xlink" x="0" y="0" width="500" height="500" viewBox="0, 0, 500, 500">
  <defs>
    <filter id="Shadow_1">
      <feGaussianBlur in="SourceAlpha" stdDeviation="2.5"/>
      <feOffset dx="0" dy="2" result="offsetblur"/>
      <feFlood flood-color="#000000"/>
      <feComposite in2="offsetblur" operator="in"/>
    </filter>
    <filter id="Shadow_2">
      <feGaussianBlur in="SourceAlpha" stdDeviation="2.5"/>
      <feOffset dx="0" dy="2" result="offsetblur"/>
      <feFlood flood-color="#000000"/>
      <feComposite in2="offsetblur" operator="in"/>
    </filter>
    <filter id="Shadow_3">
      <feGaussianBlur in="SourceAlpha" stdDeviation="2.5"/>
      <feOffset dx="0" dy="2" result="offsetblur"/>
      <feFlood flood-color="#000000"/>
      <feComposite in2="offsetblur" operator="in"/>
    </filter>
    <filter id="Shadow_4">
      <feGaussianBlur in="SourceAlpha" stdDeviation="2.5"/>
      <feOffset dx="0" dy="2" result="offsetblur"/>
      <feFlood flood-color="#000000"/>
      <feComposite in2="offsetblur" operator="in"/>
    </filter>
    <filter id="Shadow_5">
      <feGaussianBlur in="SourceAlpha" stdDeviation="2.5"/>
      <feOffset dx="0" dy="2" result="offsetblur"/>
      <feFlood flood-color="#000000"/>
      <feComposite in2="offsetblur" operator="in"/>
    </filter>
    <filter id="Shadow_6">
      <feGaussianBlur in="SourceAlpha" stdDeviation="2.5"/>
      <feOffset dx="0" dy="2" result="offsetblur"/>
      <feFlood flood-color="#000000"/>
      <feComposite in2="offsetblur" operator="in"/>
    </filter>
    <filter id="Shadow_7">
      <feGaussianBlur in="SourceAlpha" stdDeviation="2.5"/>
      <feOffset dx="0" dy="2" result="offsetblur"/>
      <feFlood flood-color="#000000"/>
      <feComposite in2="offsetblur" operator="in"/>
    </filter>
    <filter id="Shadow_8">
      <feGaussianBlur in="SourceAlpha" stdDeviation="2.5"/>
      <feOffset dx="0" dy="2" result="offsetblur"/>
      <feFlood flood-color="#000000"/>
      <feComposite in2="offsetblur" operator="in"/>
    </filter>
    <filter id="Shadow_9">
      <feGaussianBlur in="SourceAlpha" stdDeviation="2.5"/>
      <feOffset dx="0" dy="2" result="offsetblur"/>
      <feFlood flood-color="#000000"/>
      <feComposite in2="offsetblur" operator="in"/>
    </filter>
    <filter id="Shadow_10">
      <feGaussianBlur in="SourceAlpha" stdDeviation="2.5"/>
      <feOffset dx="0" dy="2" result="offsetblur"/>
      <feFlood flood-color="#000000"/>
      <feComposite in2="offsetblur" operator="in"/>
    </filter>
    <filter id="Shadow_11">
      <feGaussianBlur in="SourceAlpha" stdDeviation="2.5"/>
      <feOffset dx="0" dy="2" result="offsetblur"/>
      <feFlood flood-color="#000000"/>
      <feComposite in2="offsetblur" operator="in"/>
    </filter>
    <filter id="Shadow_12">
      <feGaussianBlur in="SourceAlpha" stdDeviation="2.5"/>
      <feOffset dx="0" dy="2" result="offsetblur"/>
      <feFlood flood-color="#000000"/>
      <feComposite in2="offsetblur" operator="in"/>
    </filter>
    <filter id="Shadow_13">
      <feGaussianBlur in="SourceAlpha" stdDeviation="2.5"/>
      <feOffset dx="0" dy="2" result="offsetblur"/>
      <feFlood flood-color="#000000"/>
      <feComposite in2="offsetblur" operator="in"/>
    </filter>
    <filter id="Shadow_14">
      <feGaussianBlur in="SourceAlpha" stdDeviation="2.5"/>
      <feOffset dx="0" dy="2" result="offsetblur"/>
      <feFlood flood-color="#000000"/>
      <feComposite in2="offsetblur" operator="in"/>
    </filter>
    <filter id="Shadow_15">
      <feGaussianBlur in="SourceAlpha" stdDeviation="2.5"/>
      <feOffset dx="0" dy="2" result="offsetblur"/>
      <feFlood flood-color="#000000"/>
      <feComposite in2="offsetblur" operator="in"/>
    </filter>
    <filter id="Shadow_16">
      <feGaussianBlur in="SourceAlpha" stdDeviation="2.5"/>
      <feOffset dx="0" dy="2" result="offsetblur"/>
      <feFlood flood-color="#000000"/>
      <feComposite in2="offsetblur" operator="in"/>
    </filter>
    <filter id="Shadow_17">
      <feGaussianBlur in="SourceAlpha" stdDeviation="2.5"/>
      <feOffset dx="0" dy="2" result="offsetblur"/>
      <feFlood flood-color="#000000"/>
      <feComposite in2="offsetblur" operator="in"/>
    </filter>
    <filter id="Shadow_18">
      <feGaussianBlur in="SourceAlpha" stdDeviation="2.5"/>
      <feOffset dx="0" dy="2" result="offsetblur"/>
      <feFlood flood-color="#000000"/>
      <feComposite in2="offsetblur" operator="in"/>
    </filter>
    <filter id="Shadow_19">
      <feGaussianBlur in="SourceAlpha" stdDeviation="2.5"/>
      <feOffset dx="0" dy="2" result="offsetblur"/>
      <feFlood flood-color="#000000"/>
      <feComposite in2="offsetblur" operator="in"/>
    </filter>
    <filter id="Shadow_20">
      <feGaussianBlur in="SourceAlpha" stdDeviation="2.5"/>
      <feOffset dx="0" dy="2" result="offsetblur"/>
      <feFlood flood-color="#000000"/>
      <feComposite in2="offsetblur" operator="in"/>
    </filter>
    <filter id="Shadow_21">
      <feGaussianBlur in="SourceAlpha" stdDeviation="2.5"/>
      <feOffset dx="0" dy="2" result="offsetblur"/>
      <feFlood flood-color="#000000"/>
      <feComposite in2="offsetblur" operator="in"/>
    </filter>
    <filter id="Shadow_22">
      <feGaussianBlur in="SourceAlpha" stdDeviation="2.5"/>
      <feOffset dx="0" dy="2" result="offsetblur"/>
      <feFlood flood-color="#000000"/>
      <feComposite in2="offsetblur" operator="in"/>
    </filter>
    <filter id="Shadow_23">
      <feGaussianBlur in="SourceAlpha" stdDeviation="2.5"/>
      <feOffset dx="0" dy="2" result="offsetblur"/>
      <feFlood flood-color="#000000"/>
      <feComposite in2="offsetblur" operator="in"/>
    </filter>
  </defs>
  <g id="Layer_1">
    <g id="Wheel">
      <g>
        <path d="M257.136,82.178 C313.084,82.651 372.881,84.018 423.328,111.319 C463.584,133.837 483.835,170.445 485.019,223.929 C486.31,282.231 469.904,320.455 432.933,344.45 C383.4,375.042 315.376,378.236 258.727,379.535 C202.152,380.383 140.753,380.89 89.09,354.403 C47.582,332.401 25.946,294.82 23.464,237.926 C20.766,176.072 39.589,136.223 80.623,112.659 C116.542,92.033 168.464,83.557 249.774,82.266 L257.136,82.178 z" filter="url(#Shadow_1)" fill="rgba(0,0,0,0.75)"/>
        <path d="M258.669,377.035 C114.839,381.412 30.978,352.822 25.962,237.817 C20.457,111.628 105.933,87.05 249.813,84.766 C401.349,82.36 480.16,117.392 482.52,223.984 C485.06,338.663 418.736,373.937 258.669,377.035 z" fill="#FFFFFF"/>
        <path d="M258.669,377.035 C114.839,381.412 30.978,352.822 25.962,237.817 C20.457,111.628 105.933,87.05 249.813,84.766 C401.349,82.36 480.16,117.392 482.52,223.984 C485.06,338.663 418.736,373.937 258.669,377.035 z" fill-opacity="0" stroke="#000000" stroke-width="5" stroke-linecap="round" stroke-linejoin="round"/>
      </g>
      <g>
        <path d="M419.184,180.457 C420.276,180.781 419.845,180.554 420.536,181.013 C421.604,181.888 421.761,183.463 420.886,184.531 C416.795,189.525 411.126,192.774 403.047,195.553 C401.075,196.232 399.632,196.679 396.031,197.757 C388.518,200.006 380.566,201.826 370.923,203.613 C351.08,207.29 330.201,209.73 304.659,211.643 C250.344,215.711 198.241,215.706 148.177,211.28 C146.802,211.159 145.785,209.945 145.907,208.57 C146.028,207.194 147.242,206.178 148.617,206.3 C198.399,210.701 250.232,210.705 304.285,206.657 C329.662,204.756 350.371,202.336 370.012,198.697 C379.493,196.94 387.279,195.158 394.597,192.967 C398.131,191.909 399.534,191.474 401.421,190.825 C408.701,188.32 413.634,185.493 417.018,181.362 C417.647,180.602 418.269,180.548 419.184,180.457 z" filter="url(#Shadow_2)" fill="rgba(0,0,0,0.75)"/>
        <path d="M418.952,182.947 C413.108,190.081 403.505,192.91 395.314,195.362 C387.149,197.806 378.818,199.608 370.467,201.155 C348.654,205.197 326.551,207.496 304.472,209.15 C252.598,213.035 200.281,213.377 148.397,208.79" fill="#FFFFFF"/>
        <path d="M418.952,182.947 C413.108,190.081 403.505,192.91 395.314,195.362 C387.149,197.806 378.818,199.608 370.467,201.155 C348.654,205.197 326.551,207.496 304.472,209.15 C252.598,213.035 200.281,213.377 148.397,208.79" fill-opacity="0" stroke="#000000" stroke-width="5" stroke-linecap="round" stroke-linejoin="round"/>
      </g>
      <g>
        <path d="M72.858,182.492 C74.137,182.571 74.947,183.248 75.346,184.44 C76.152,187.997 79.422,190.681 85.168,193.361 C92.587,196.821 100.421,198.997 112.168,201.263 C113.981,201.613 115.092,201.819 118.835,202.509 C120.193,202.759 121.091,204.063 120.841,205.421 C120.59,206.778 119.287,207.676 117.929,207.426 C114.171,206.734 113.053,206.526 111.221,206.172 C99.105,203.836 90.926,201.564 83.055,197.892 C76.001,194.602 71.727,191.094 70.47,185.544 C70.165,184.197 71.009,182.859 72.356,182.554 L72.858,182.492 z" filter="url(#Shadow_3)" fill="rgba(0,0,0,0.75)"/>
        <path d="M118.382,204.968 C106.793,202.833 94.981,200.697 84.111,195.627 C79.742,193.589 74.139,190.429 72.908,184.992" fill="#FFFFFF"/>
        <path d="M118.382,204.968 C106.793,202.833 94.981,200.697 84.111,195.627 C79.742,193.589 74.139,190.429 72.908,184.992" fill-opacity="0" stroke="#000000" stroke-width="5" stroke-linecap="round" stroke-linejoin="round"/>
      </g>
      <g>
        <path d="M278.958,106.195 C279.86,106.252 280.465,106.665 281.004,107.347 C281.749,108.51 281.409,110.056 280.246,110.8 C270.66,116.936 264.52,121.893 259.72,128.079 C258.873,129.169 257.303,129.367 256.212,128.521 C255.121,127.674 254.923,126.104 255.77,125.013 C261,118.274 267.523,113.007 277.551,106.589 C278.291,106.214 277.836,106.389 278.958,106.195 z" filter="url(#Shadow_4)" fill="rgba(0,0,0,0.75)"/>
        <path d="M257.745,126.546 C263.561,119.052 271.391,113.5 278.899,108.695" fill="#FFFFFF"/>
        <path d="M257.745,126.546 C263.561,119.052 271.391,113.5 278.899,108.695" fill-opacity="0" stroke="#000000" stroke-width="5" stroke-linecap="round" stroke-linejoin="round"/>
      </g>
      <g>
        <path d="M317.705,133.293 C319.086,133.305 320.196,134.433 320.185,135.814 C320.174,137.194 319.045,138.305 317.665,138.293 C303.779,138.18 292.685,140.271 283.152,145.52 C281.942,146.186 280.422,145.745 279.756,144.536 C279.09,143.326 279.531,141.806 280.74,141.14 C291.134,135.417 303.036,133.174 317.705,133.293 z" filter="url(#Shadow_5)" fill="rgba(0,0,0,0.75)"/>
        <path d="M281.946,143.33 C293.015,137.236 305.443,135.694 317.685,135.793" fill="#FFFFFF"/>
        <path d="M281.946,143.33 C293.015,137.236 305.443,135.694 317.685,135.793" fill-opacity="0" stroke="#000000" stroke-width="5" stroke-linecap="round" stroke-linejoin="round"/>
      </g>
      <g>
        <path d="M197.772,107.422 C198.897,107.6 198.44,107.432 199.185,107.796 C207.238,112.793 214.231,119 223.423,128.685 C224.373,129.687 224.332,131.269 223.33,132.22 C222.329,133.17 220.746,133.129 219.796,132.127 C210.873,122.726 204.163,116.77 196.548,112.045 C195.375,111.317 195.015,109.775 195.742,108.602 C196.213,107.809 196.937,107.617 197.772,107.422 z" filter="url(#Shadow_6)" fill="rgba(0,0,0,0.75)"/>
        <path d="M197.867,109.92 C206.802,115.465 214.325,122.732 221.609,130.406" fill="#FFFFFF"/>
        <path d="M197.867,109.92 C206.802,115.465 214.325,122.732 221.609,130.406" fill-opacity="0" stroke="#000000" stroke-width="5" stroke-linecap="round" stroke-linejoin="round"/>
      </g>
      <g>
        <path d="M205.579,154.514 C206.855,154.621 207.65,155.316 208.023,156.516 C208.299,157.869 207.425,159.189 206.072,159.464 C191.601,162.411 182.993,165.101 174.935,169.958 C173.753,170.671 172.216,170.29 171.503,169.107 C170.791,167.925 171.171,166.388 172.354,165.675 C181.029,160.447 190.083,157.618 205.075,154.565 L205.579,154.514 z" filter="url(#Shadow_7)" fill="rgba(0,0,0,0.75)"/>
        <path d="M173.645,167.817 C183.433,161.917 194.635,159.242 205.574,157.015" fill="#FFFFFF"/>
        <path d="M173.645,167.817 C183.433,161.917 194.635,159.242 205.574,157.015" fill-opacity="0" stroke="#000000" stroke-width="5" stroke-linecap="round" stroke-linejoin="round"/>
      </g>
      <g>
        <path d="M243.159,164.801 L243.645,164.943 C244.925,165.461 245.543,166.919 245.025,168.199 C243.891,171.001 243.196,174.128 242.78,177.915 C242.544,180.056 242.441,181.683 242.243,185.699 C242.189,186.804 242.157,187.415 242.119,188.086 C242.041,189.465 240.861,190.519 239.482,190.441 C238.104,190.363 237.049,189.182 237.127,187.803 C237.165,187.149 237.195,186.546 237.249,185.453 C237.452,181.334 237.56,179.644 237.81,177.369 C238.272,173.161 239.063,169.602 240.39,166.323 C241.032,164.998 241.802,164.82 243.159,164.801 z" filter="url(#Shadow_8)" fill="rgba(0,0,0,0.75)"/>
        <path d="M242.708,167.261 C240.021,173.898 240,181.302 239.623,187.945" fill="#FFFFFF"/>
        <path d="M242.708,167.261 C240.021,173.898 240,181.302 239.623,187.945" fill-opacity="0" stroke="#000000" stroke-width="5" stroke-linecap="round" stroke-linejoin="round"/>
      </g>
      <g>
        <path d="M273.772,161.057 C274.905,161.177 274.44,161.032 275.203,161.358 C280.456,164.256 283.108,168.008 287.215,176.47 C287.303,176.652 287.627,177.321 287.699,177.468 C287.887,177.856 288.037,178.163 288.182,178.459 C288.611,179.336 288.974,180.059 289.329,180.744 C289.966,181.969 289.489,183.478 288.263,184.115 C287.038,184.751 285.529,184.274 284.892,183.049 C284.516,182.324 284.137,181.568 283.691,180.659 C283.543,180.356 283.391,180.044 283.2,179.65 C283.128,179.502 282.804,178.834 282.717,178.653 C279.042,171.083 276.846,167.975 272.788,165.736 C271.579,165.069 271.139,163.548 271.806,162.339 C272.235,161.523 272.949,161.295 273.772,161.057 z" filter="url(#Shadow_9)" fill="rgba(0,0,0,0.75)"/>
        <path d="M273.995,163.547 C280.947,167.382 283.458,174.865 287.111,181.896" fill="#FFFFFF"/>
        <path d="M273.995,163.547 C280.947,167.382 283.458,174.865 287.111,181.896" fill-opacity="0" stroke="#000000" stroke-width="5" stroke-linecap="round" stroke-linejoin="round"/>
      </g>
      <g>
        <path d="M101.875,232.986 L102.372,233.082 C103.695,233.479 104.445,234.873 104.048,236.195 C97.187,259.064 98.808,286.319 107.586,311.901 C108.035,313.207 107.339,314.629 106.033,315.077 C104.727,315.525 103.305,314.829 102.857,313.523 C93.759,287.009 92.075,258.703 99.259,234.758 C99.775,233.379 100.525,233.131 101.875,232.986 z" filter="url(#Shadow_10)" fill="rgba(0,0,0,0.75)"/>
        <path d="M101.654,235.477 C94.203,260.311 96.905,288.473 105.222,312.712" fill="#FFFFFF"/>
        <path d="M101.654,235.477 C94.203,260.311 96.905,288.473 105.222,312.712" fill-opacity="0" stroke="#000000" stroke-width="5" stroke-linecap="round" stroke-linejoin="round"/>
      </g>
      <g>
        <path d="M159.009,248.761 C160.389,248.805 161.471,249.96 161.427,251.34 C160.663,274.91 164.582,296.78 174.25,332.18 C174.613,333.512 173.828,334.887 172.497,335.251 C171.165,335.615 169.79,334.83 169.426,333.498 C159.636,297.648 155.645,275.378 156.429,251.178 C156.474,249.799 157.629,248.716 159.009,248.761 z" filter="url(#Shadow_11)" fill="rgba(0,0,0,0.75)"/>
        <path d="M158.928,251.259 C158.024,279.179 164.591,306.304 171.838,332.839" fill="#FFFFFF"/>
        <path d="M158.928,251.259 C158.024,279.179 164.591,306.304 171.838,332.839" fill-opacity="0" stroke="#000000" stroke-width="5" stroke-linecap="round" stroke-linejoin="round"/>
      </g>
      <g>
        <path d="M412.304,227.051 C413.684,226.983 414.856,228.047 414.924,229.426 C416.373,259.018 409.586,288.699 395.612,318.486 C395.026,319.736 393.537,320.274 392.287,319.688 C391.037,319.102 390.499,317.613 391.085,316.363 C404.732,287.275 411.336,258.39 409.93,229.67 C409.862,228.291 410.925,227.118 412.304,227.051 z" filter="url(#Shadow_12)" fill="rgba(0,0,0,0.75)"/>
        <path d="M412.427,229.548 C413.944,260.532 406.169,290.097 393.349,317.425" fill="#FFFFFF"/>
        <path d="M412.427,229.548 C413.944,260.532 406.169,290.097 393.349,317.425" fill-opacity="0" stroke="#000000" stroke-width="5" stroke-linecap="round" stroke-linejoin="round"/>
      </g>
      <g>
        <path d="M333.588,255.388 C334.851,255.602 335.586,256.361 335.857,257.588 C336.97,267.056 336.576,276.735 334.879,287.434 C333.596,295.534 332.034,302.259 328.509,315.867 C327.342,320.371 327.102,321.301 326.597,323.297 C326.258,324.636 324.898,325.446 323.559,325.107 C322.221,324.768 321.411,323.408 321.75,322.07 C322.259,320.061 322.499,319.128 323.669,314.613 C327.154,301.157 328.69,294.543 329.941,286.652 C331.57,276.376 331.946,267.146 330.891,258.172 C330.73,256.8 331.711,255.558 333.082,255.397 L333.588,255.388 z" filter="url(#Shadow_13)" fill="rgba(0,0,0,0.75)"/>
        <path d="M333.374,257.88 C336.021,280.397 329.482,301.726 324.173,322.684" fill="#FFFFFF"/>
        <path d="M333.374,257.88 C336.021,280.397 329.482,301.726 324.173,322.684" fill-opacity="0" stroke="#000000" stroke-width="5" stroke-linecap="round" stroke-linejoin="round"/>
      </g>
      <g>
        <path d="M245.374,257.416 L245.876,257.483 C247.219,257.802 248.05,259.149 247.731,260.493 C242.465,282.688 242.378,306.194 246.985,330.965 C247.237,332.323 246.342,333.628 244.984,333.88 C243.627,334.133 242.322,333.237 242.069,331.88 C237.341,306.454 237.43,282.25 242.866,259.338 C243.261,257.971 244.085,257.631 245.374,257.416 z" filter="url(#Shadow_14)" fill="rgba(0,0,0,0.75)"/>
        <path d="M245.298,259.916 C239.689,283.556 240.108,307.662 244.527,331.423" fill="#FFFFFF"/>
        <path d="M245.298,259.916 C239.689,283.556 240.108,307.662 244.527,331.423" fill-opacity="0" stroke="#000000" stroke-width="5" stroke-linecap="round" stroke-linejoin="round"/>
      </g>
    </g>
    <g id="Paneer1">
      <g>
        <path d="M185.968,358.868 L186.2,358.877 L186.427,358.881 L186.45,358.887 L186.474,358.888 L267.693,370.233 C269.042,370.422 269.992,371.656 269.829,373.008 L259.292,460.44 C259.124,461.829 257.85,462.81 256.464,462.617 L175.245,451.271 C173.896,451.083 172.946,449.849 173.109,448.496 L183.646,361.064 L183.651,361.041 L183.652,361.018 L183.706,360.798 C183.758,360.565 183.718,360.638 183.765,360.556 C183.809,360.376 183.767,360.535 184.009,360.128 C184.241,359.721 184.116,359.823 184.256,359.713 C184.26,359.706 184.264,359.699 184.268,359.692 C184.389,359.601 184.51,359.51 184.631,359.419 C184.75,359.325 184.869,359.232 184.988,359.138 C184.996,359.136 185.004,359.134 185.011,359.132 C185.153,359.025 185.023,359.119 185.477,358.999 C185.931,358.869 185.767,358.869 185.952,358.872 L185.968,358.868 z" filter="url(#Shadow_15)" fill="rgba(0,0,0,0.75)"/>
        <path d="M186.128,361.363 L267.347,372.709 L256.81,460.141 L175.591,448.795 L186.128,361.363" fill="#FFFFFF"/>
        <path d="M186.128,361.363 L267.347,372.709 L256.81,460.141 L175.591,448.795 L186.128,361.363" fill-opacity="0" stroke="#000000" stroke-width="5" stroke-linecap="round" stroke-linejoin="round"/>
      </g>
      <g>
        <path d="M234.083,327.821 L310.642,338.516 L310.819,338.569 C310.951,338.564 310.884,338.551 311.017,338.628 C311.538,338.784 311.304,338.652 311.714,339.034 C312.188,339.31 312.034,339.127 312.24,339.523 C312.556,339.818 312.428,339.627 312.557,340.133 C312.825,340.648 312.751,340.371 312.768,340.966 C312.803,341.104 312.81,341.043 312.774,341.151 L312.778,341.291 L302.369,427.663 C302.288,428.334 301.938,428.944 301.4,429.353 L258.324,462.13 C256.566,463.468 254.064,462.035 254.328,459.841 L264.865,372.41 L264.911,372.203 C264.846,371.554 265.434,371.083 265.862,370.698 L303.883,342.62 L234.319,332.903 L187.494,363.457 C186.338,364.212 184.789,363.886 184.034,362.73 C183.28,361.573 183.606,360.024 184.762,359.27 L232.371,328.204 C232.877,327.874 233.485,327.738 234.083,327.821 z M307.121,346.445 L269.7,374.079 L259.999,454.573 L297.531,426.015 L307.121,346.445 z" filter="url(#Shadow_16)" fill="rgba(0,0,0,0.75)"/>
        <path d="M186.128,361.363 L233.737,330.297 L310.296,340.992 L267.347,372.709 L310.296,340.992 L299.887,427.364 L256.81,460.141 L267.347,372.709" fill="#FFFFFF"/>
        <path d="M186.128,361.363 L233.737,330.297 L310.296,340.992 L267.347,372.709 L310.296,340.992 L299.887,427.364 L256.81,460.141 L267.347,372.709" fill-opacity="0" stroke="#000000" stroke-width="5" stroke-linecap="round" stroke-linejoin="round"/>
      </g>
      <g>
        <path d="M185.968,358.868 L186.474,358.888 L267.693,370.233 C269.06,370.424 270.014,371.688 269.823,373.055 C269.632,374.422 268.368,375.376 267.001,375.185 L185.782,363.839 C184.415,363.648 183.461,362.385 183.652,361.018 C183.917,359.619 184.705,359.203 185.968,358.868 z" filter="url(#Shadow_17)" fill="rgba(0,0,0,0.75)"/>
        <path d="M267.347,372.709 L186.128,361.363" fill="#FFFFFF"/>
        <path d="M267.347,372.709 L186.128,361.363" fill-opacity="0" stroke="#000000" stroke-width="5" stroke-linecap="round" stroke-linejoin="round"/>
      </g>
    </g>
    <g id="Paneer2">
      <g>
        <path d="M385.457,360.641 C386.839,360.633 387.965,361.747 387.972,363.128 L388.457,457.5 C388.464,458.88 387.352,460.005 385.972,460.013 L294.599,460.557 C293.217,460.566 292.091,459.452 292.084,458.07 L291.599,363.698 L291.623,363.447 C291.631,363.363 291.639,363.28 291.647,363.196 C291.647,363.196 291.647,363.196 291.647,363.195 C291.647,363.195 291.647,363.194 291.647,363.194 C291.707,363.049 291.767,362.904 291.828,362.759 C291.891,362.606 291.954,362.453 292.017,362.3 C292.018,362.3 292.018,362.299 292.018,362.299 C292.018,362.299 292.018,362.298 292.019,362.298 C292.117,362.199 292.215,362.099 292.314,362 C292.439,361.874 292.564,361.747 292.689,361.621 C292.689,361.62 292.689,361.62 292.69,361.62 C292.69,361.62 292.69,361.62 292.69,361.62 C292.824,361.562 292.958,361.505 293.092,361.448 C293.255,361.379 293.418,361.309 293.58,361.239 C293.581,361.239 293.581,361.239 293.582,361.239 C293.582,361.239 293.582,361.239 293.582,361.239 C293.661,361.23 293.739,361.222 293.817,361.214 L294.084,361.185 L385.457,360.641 z" filter="url(#Shadow_18)" fill="rgba(0,0,0,0.75)"/>
        <path d="M294.099,363.685 L385.472,363.141 L385.957,457.513 L294.584,458.058 L294.099,363.685" fill="#FFFFFF"/>
        <path d="M294.099,363.685 L385.472,363.141 L385.957,457.513 L294.584,458.058 L294.099,363.685" fill-opacity="0" stroke="#000000" stroke-width="5" stroke-linecap="round" stroke-linejoin="round"/>
      </g>
      <g>
        <path d="M428.541,320.346 L428.772,320.381 C428.918,320.358 428.845,320.351 428.99,320.413 C429.482,320.486 429.241,320.398 429.696,320.717 C430.227,320.946 430.049,320.776 430.301,321.142 C430.641,321.382 430.491,321.215 430.683,321.699 C431.022,322.191 430.915,321.921 431.006,322.509 C431.058,322.64 431.057,322.579 431.034,322.691 L431.056,322.834 L431.535,416.062 C431.539,416.746 431.262,417.402 430.768,417.877 L387.69,459.315 C386.107,460.839 383.469,459.724 383.457,457.526 L382.972,363.154 L382.995,362.921 C382.855,362.284 383.383,361.747 383.765,361.315 L422.183,325.384 L343.338,325.854 L295.701,365.605 C294.64,366.489 293.064,366.347 292.179,365.287 C291.295,364.227 291.437,362.65 292.497,361.766 L340.824,321.44 C341.269,321.068 341.83,320.863 342.41,320.859 L428.541,320.346 z M426.086,328.58 L387.978,364.221 L388.427,451.668 L426.53,415.016 L426.086,328.58 z" filter="url(#Shadow_19)" fill="rgba(0,0,0,0.75)"/>
        <path d="M294.099,363.685 L342.425,323.36 L428.556,322.847 L385.472,363.141 L428.556,322.847 L429.035,416.075 L385.957,457.513 L385.472,363.141" fill="#FFFFFF"/>
        <path d="M294.099,363.685 L342.425,323.36 L428.556,322.847 L385.472,363.141 L428.556,322.847 L429.035,416.075 L385.957,457.513 L385.472,363.141" fill-opacity="0" stroke="#000000" stroke-width="5" stroke-linecap="round" stroke-linejoin="round"/>
      </g>
      <g>
        <path d="M385.457,360.641 C386.838,360.633 387.964,361.746 387.972,363.126 C387.981,364.507 386.868,365.633 385.487,365.641 L294.114,366.185 C292.733,366.194 291.607,365.081 291.599,363.7 C291.591,362.32 292.703,361.194 294.084,361.185 L385.457,360.641 z" filter="url(#Shadow_20)" fill="rgba(0,0,0,0.75)"/>
        <path d="M385.472,363.141 L294.099,363.685" fill="#FFFFFF"/>
        <path d="M385.472,363.141 L294.099,363.685" fill-opacity="0" stroke="#000000" stroke-width="5" stroke-linecap="round" stroke-linejoin="round"/>
      </g>
    </g>
    <g id="Paneer3">
      <g>
        <path d="M263.664,274.614 L263.671,274.615 L263.678,274.615 L332.523,277.592 C333.897,277.652 334.964,278.809 334.913,280.183 L332.245,351.674 C332.194,353.06 331.024,354.139 329.639,354.079 L260.794,351.101 C259.421,351.041 258.353,349.884 258.404,348.51 L261.072,277.019 L261.073,277.012 L261.073,277.004 L261.107,276.766 C261.119,276.683 261.13,276.6 261.142,276.517 C261.142,276.516 261.143,276.514 261.144,276.513 C261.144,276.509 261.145,276.506 261.145,276.503 C261.213,276.361 261.28,276.218 261.347,276.076 C261.415,275.93 261.483,275.784 261.551,275.638 C261.553,275.636 261.555,275.635 261.557,275.633 C261.558,275.631 261.559,275.628 261.56,275.626 C261.675,275.521 261.789,275.416 261.904,275.31 C262.02,275.203 262.135,275.096 262.251,274.988 C262.253,274.988 262.256,274.987 262.258,274.986 C262.26,274.984 262.262,274.982 262.263,274.981 C262.413,274.925 262.563,274.87 262.713,274.814 C262.861,274.758 263.01,274.702 263.158,274.646 C263.161,274.646 263.165,274.646 263.168,274.645 C263.17,274.645 263.171,274.644 263.173,274.643 C263.255,274.639 263.338,274.634 263.421,274.629 L263.664,274.614 z" filter="url(#Shadow_21)" fill="rgba(0,0,0,0.75)"/>
        <path d="M263.57,277.112 L332.415,280.09 L329.747,351.581 L260.903,348.603 L263.57,277.112" fill="#FFFFFF"/>
        <path d="M263.57,277.112 L332.415,280.09 L329.747,351.581 L260.903,348.603 L263.57,277.112" fill-opacity="0" stroke="#000000" stroke-width="5" stroke-linecap="round" stroke-linejoin="round"/>
      </g>
      <g>
        <path d="M301.376,245.867 L366.271,248.674 L366.488,248.717 C366.631,248.701 366.559,248.691 366.702,248.76 C367.199,248.859 366.962,248.756 367.401,249.097 C367.915,249.345 367.744,249.169 367.981,249.548 C368.313,249.806 368.171,249.631 368.34,250.121 C368.655,250.624 368.559,250.349 368.625,250.947 C368.671,251.079 368.673,251.019 368.646,251.127 L368.661,251.265 L366.026,321.889 C366,322.574 365.695,323.218 365.181,323.671 L331.4,353.456 C329.753,354.909 327.167,353.683 327.249,351.488 L329.917,279.997 L329.949,279.762 C329.837,279.12 330.388,278.607 330.788,278.192 L359.725,253.395 L302.065,250.901 L265.086,279.1 C263.988,279.937 262.42,279.726 261.582,278.628 C260.745,277.53 260.957,275.962 262.054,275.124 L299.752,246.376 C300.217,246.022 300.792,245.842 301.376,245.867 z M363.452,256.787 L334.872,281.277 L332.462,345.854 L361.069,320.63 L363.452,256.787 z" filter="url(#Shadow_22)" fill="rgba(0,0,0,0.75)"/>
        <path d="M263.57,277.112 L301.268,248.364 L366.163,251.171 L332.415,280.09 L366.163,251.171 L363.527,321.796 L329.747,351.581 L332.415,280.09" fill="#FFFFFF"/>
        <path d="M263.57,277.112 L301.268,248.364 L366.163,251.171 L332.415,280.09 L366.163,251.171 L363.527,321.796 L329.747,351.581 L332.415,280.09" fill-opacity="0" stroke="#000000" stroke-width="5" stroke-linecap="round" stroke-linejoin="round"/>
      </g>
      <g>
        <path d="M263.678,274.615 L332.523,277.592 C333.902,277.652 334.972,278.819 334.913,280.198 C334.853,281.578 333.686,282.647 332.307,282.588 L263.462,279.61 C262.083,279.55 261.013,278.384 261.073,277.004 C261.132,275.625 262.299,274.555 263.678,274.615 z" filter="url(#Shadow_23)" fill="rgba(0,0,0,0.75)"/>
        <path d="M332.415,280.09 L263.57,277.112" fill="#FFFFFF"/>
        <path d="M332.415,280.09 L263.57,277.112" fill-opacity="0" stroke="#000000" stroke-width="5" stroke-linecap="round" stroke-linejoin="round"/>
      </g>
    </g>
  </g>
</svg>
