<?xml version="1.0" encoding="UTF-8"?>
<!DOCTYPE svg PUBLIC "-//W3C//DTD SVG 1.1//EN" "http://www.w3.org/Graphics/SVG/1.1/DTD/svg11.dtd">
<svg version="1.1" xmlns="http://www.w3.org/2000/svg" xmlns:xlink="http://www.w3.org/1999/xlink" x="0" y="0" width="500" height="500" viewBox="0, 0, 500, 500">
  <defs>
    <filter id="Shadow_1">
      <feGaussianBlur in="SourceAlpha" stdDeviation="2.5"/>
      <feOffset dx="0" dy="2" result="offsetblur"/>
      <feFlood flood-color="#000000"/>
      <feComposite in2="offsetblur" operator="in"/>
    </filter>
    <filter id="Shadow_2">
      <feGaussianBlur in="SourceAlpha" stdDeviation="2.5"/>
      <feOffset dx="0" dy="2" result="offsetblur"/>
      <feFlood flood-color="#000000"/>
      <feComposite in2="offsetblur" operator="in"/>
    </filter>
    <filter id="Shadow_3">
      <feGaussianBlur in="SourceAlpha" stdDeviation="2.5"/>
      <feOffset dx="0" dy="2" result="offsetblur"/>
      <feFlood flood-color="#000000"/>
      <feComposite in2="offsetblur" operator="in"/>
    </filter>
    <filter id="Shadow_4">
      <feGaussianBlur in="SourceAlpha" stdDeviation="2.5"/>
      <feOffset dx="0" dy="2" result="offsetblur"/>
      <feFlood flood-color="#000000"/>
      <feComposite in2="offsetblur" operator="in"/>
    </filter>
    <filter id="Shadow_5">
      <feGaussianBlur in="SourceAlpha" stdDeviation="2.5"/>
      <feOffset dx="0" dy="2" result="offsetblur"/>
      <feFlood flood-color="#000000"/>
      <feComposite in2="offsetblur" operator="in"/>
    </filter>
    <filter id="Shadow_6">
      <feGaussianBlur in="SourceAlpha" stdDeviation="2.5"/>
      <feOffset dx="0" dy="2" result="offsetblur"/>
      <feFlood flood-color="#000000"/>
      <feComposite in2="offsetblur" operator="in"/>
    </filter>
    <filter id="Shadow_7">
      <feGaussianBlur in="SourceAlpha" stdDeviation="2.5"/>
      <feOffset dx="0" dy="2" result="offsetblur"/>
      <feFlood flood-color="#000000"/>
      <feComposite in2="offsetblur" operator="in"/>
    </filter>
    <filter id="Shadow_8">
      <feGaussianBlur in="SourceAlpha" stdDeviation="2.5"/>
      <feOffset dx="0" dy="2" result="offsetblur"/>
      <feFlood flood-color="#000000"/>
      <feComposite in2="offsetblur" operator="in"/>
    </filter>
  </defs>
  <g id="Red_Onion">
    <g id="Onion">
      <g id="Big_onion">
        <g id="Stem">
          <g>
            <path d="M210.764,30.835 C211.787,31.66 211.32,31.243 212.174,32.072 C242.989,63.026 251.033,111.461 242.393,152.85 L230.754,155.746 C238.936,124.371 243.021,88.879 227.444,58.888 C223.519,51.751 218.92,45.01 214.557,38.138 C214.201,37.577 209.579,30.845 210.764,30.835 z" filter="url(#Shadow_1)" fill="rgba(0,0,0,0.75)"/>
            <path d="M230.754,155.746 C238.936,124.371 243.021,88.879 227.444,58.888 C222.702,49.758 204.926,24.791 212.174,32.072 C242.989,63.026 251.033,111.461 242.393,152.85 z" fill="#207820"/>
            <path d="M210.764,30.835 C211.787,31.66 211.32,31.243 212.174,32.072 C242.989,63.026 251.033,111.461 242.393,152.85 L230.754,155.746 C238.936,124.371 243.021,88.879 227.444,58.888 C223.519,51.751 218.92,45.01 214.557,38.138 C214.201,37.577 209.579,30.845 210.764,30.835 z M214.129,35.563 C215.279,37.42 214.661,36.432 215.987,38.523 C216.579,39.453 217.21,40.436 218.107,41.83 C218.347,42.203 219.182,43.501 219.223,43.564 C219.673,44.264 220.019,44.802 220.356,45.326 C220.537,45.609 220.537,45.609 220.718,45.891 C224.653,52.026 226.961,55.788 228.331,58.427 C243.732,88.472 239.951,122.756 232.124,154.375 L241.533,152.033 C248.555,116.715 244.116,77.798 223.573,47.51 C219.715,41.822 218.57,40.769 214.129,35.563 z" fill="#000000"/>
          </g>
          <g>
            <path d="M233.042,38.951 C233.439,38.965 233.697,39.658 233.882,39.961 C248.498,64.767 249.861,101.84 242.72,132.85 L236.313,134.542 C242.6,111.106 246.944,84.371 240.427,60.956 C238.691,55.147 236.482,49.493 234.476,43.775 C233.951,42.278 233.198,40.569 233.042,38.951 z" filter="url(#Shadow_2)" fill="rgba(0,0,0,0.75)"/>
            <path d="M236.313,134.542 C242.6,111.106 246.944,84.371 240.427,60.956 C238.444,53.828 230.444,34.126 233.882,39.961 C248.498,64.767 249.861,101.84 242.72,132.85 z" fill="#207820"/>
            <path d="M233.042,38.951 C233.439,38.965 233.697,39.658 233.882,39.961 C248.498,64.767 249.861,101.84 242.72,132.85 L236.313,134.542 C242.6,111.106 246.944,84.371 240.427,60.956 C238.691,55.147 236.482,49.493 234.476,43.775 C233.951,42.278 233.198,40.569 233.042,38.951 z M242.133,63.63 C247.656,86.598 243.519,110.672 237.709,133.139 L241.868,132.04 C245.874,113.957 247.168,95.171 244.684,76.771 C243.611,68.824 243.457,68.458 242.133,63.63 z M238.206,51.215 C239.078,53.667 239.971,56.113 240.753,58.595 C240.109,56.071 239.213,53.616 238.206,51.215 z" fill="#000000"/>
          </g>
          <g>
            <path d="M273.539,23.856 C273.917,23.902 273.813,23.824 273.58,24.48 C272.293,28.091 270.204,31.58 268.478,34.964 C265.584,40.64 262.565,46.273 260.004,52.11 C246.99,82.471 246.122,119.951 248.306,153.397 L241.08,149.561 C239.59,105.588 249.563,55.379 272.507,25.056 C273.132,24.256 272.791,24.658 273.539,23.856 z" filter="url(#Shadow_3)" fill="rgba(0,0,0,0.75)"/>
            <path d="M248.306,153.397 C246.122,119.951 246.99,82.471 260.004,52.11 C263.966,42.868 277.904,17.923 272.507,25.056 C249.563,55.379 239.59,105.588 241.08,149.561 z" fill="#207820"/>
            <path d="M273.539,23.856 C273.917,23.902 273.813,23.824 273.58,24.48 C272.293,28.091 270.204,31.58 268.478,34.964 C265.584,40.64 262.565,46.273 260.004,52.11 C246.99,82.471 246.122,119.951 248.306,153.397 L241.08,149.561 C239.59,105.588 249.563,55.379 272.507,25.056 C273.132,24.256 272.791,24.658 273.539,23.856 z M268.602,32.522 C247.143,66.763 241.407,109.35 242.07,148.954 L247.206,151.681 C245.132,117.143 246.001,84.191 259.085,51.716 C260.224,49.059 262.081,45.283 265.211,39.152 C265.341,38.898 265.341,38.898 265.47,38.645 C266.516,36.605 267.559,34.564 268.602,32.522 z" fill="#000000"/>
          </g>
          <g>
            <path d="M279.862,29.126 C280.229,29.2 280.125,29.115 279.877,29.757 C278.514,33.279 276.369,36.659 274.582,39.948 C271.586,45.46 268.47,50.927 265.796,56.606 C252.15,86.246 249.892,123.931 250.717,157.773 L243.927,153.389 C244.168,108.995 255.649,59.145 278.825,30.259 C279.455,29.5 279.112,29.88 279.862,29.126 z" filter="url(#Shadow_4)" fill="rgba(0,0,0,0.75)"/>
            <path d="M250.717,157.773 C249.892,123.931 252.15,86.246 265.796,56.606 C269.95,47.583 284.277,23.465 278.825,30.259 C255.649,59.145 244.168,108.995 243.927,153.389 z" fill="#207820"/>
            <path d="M279.862,29.126 C280.229,29.2 280.125,29.115 279.877,29.757 C278.514,33.279 276.369,36.659 274.582,39.948 C271.586,45.46 268.47,50.927 265.796,56.606 C252.15,86.246 249.892,123.931 250.717,157.773 L243.927,153.389 C244.168,108.995 255.649,59.145 278.825,30.259 C279.455,29.5 279.112,29.88 279.862,29.126 z M274.68,37.675 C252.559,71.224 245.795,113.489 244.939,152.852 L249.686,155.917 C248.912,121.897 251.185,87.74 264.888,56.188 C266.081,53.597 268.005,49.931 271.234,43.997 C271.366,43.755 271.366,43.755 271.498,43.513 C272.56,41.568 273.62,39.622 274.68,37.675 z" fill="#000000"/>
          </g>
          <g>
            <path d="M244.635,20.749 L245.398,22.697 C255.156,64.055 252.844,117.814 245.09,161.766 L238.351,154.573 C245.816,111.986 249.916,64.486 244.636,20.749 z" filter="url(#Shadow_5)" fill="rgba(0,0,0,0.75)"/>
            <path d="M238.351,154.573 C245.816,111.986 249.916,64.486 244.636,20.749 L245.398,22.697 C255.156,64.055 252.844,117.814 245.09,161.766 L238.351,154.573 z" fill="#207820"/>
            <path d="M244.635,20.749 L245.398,22.697 C255.156,64.055 252.844,117.814 245.09,161.766 L238.351,154.573 C245.816,111.986 249.916,64.486 244.636,20.749 z M247.007,35.927 C250.075,75.501 245.986,115.232 239.419,154.251 L244.434,159.604 C251.233,118.839 253.545,76.879 247.007,35.927 z" fill="#000000"/>
          </g>
        </g>
        <g id="Onion">
          <g>
            <path d="M247.81,122.698 C251.503,122.844 254.341,123.657 255.255,127.514 L255.125,128.619 C255.036,128.87 254.873,129.462 254.701,130.372 C253.586,136.265 254.159,143.899 257.721,152.869 C260.029,158.683 265.807,165.203 275.833,173.787 C281.217,178.396 303.448,195.95 307.309,199.126 C316.372,206.581 323.715,213.186 330.203,219.905 C349.946,240.354 362.546,266.829 367.876,296.306 C380.43,365.738 316.81,438.407 249.486,432.781 C205.563,429.11 177.849,421.775 157.501,405.882 C133.334,387.006 121.634,356.3 122.39,309.428 C122.71,289.532 128.889,269.868 140.147,250.258 C149.482,233.995 161.982,218.25 177.649,202.059 C183.737,195.767 190.122,189.587 197.465,182.79 C203.242,177.497 209.027,172.213 214.849,166.97 C218.586,162.883 230.327,154.186 231.509,148.684 C231.812,146.027 232.634,137.765 232.615,137.947 C232.997,134.316 233.317,132.075 233.745,130.373 C234.656,126.759 239.086,124.102 244.26,123.059 L246.335,122.741 L247.81,122.698 z" filter="url(#Shadow_6)" fill="rgba(0,0,0,0.75)"/>
            <path d="M249.694,430.289 C314.801,435.73 377.783,365.151 365.416,296.751 C365.416,296.751 365.416,296.751 365.416,296.751 C360.557,269.882 349.033,243.008 328.405,221.642 C300.948,193.204 262.788,172.404 255.397,153.791 C249.134,138.018 252.769,127.783 252.769,127.783 C252.216,122.663 237.482,125.776 236.169,130.984 C235.289,134.478 234.888,141.125 233.993,148.968 C232.217,164.524 126.225,226.591 124.889,309.469 C123.327,406.387 175.917,424.124 249.694,430.289 z" fill="#951A64"/>
            <path d="M249.694,430.289 C314.801,435.73 377.783,365.151 365.416,296.751 C365.416,296.751 365.416,296.751 365.416,296.751 C360.557,269.882 349.033,243.008 328.405,221.642 C300.948,193.204 262.788,172.404 255.397,153.791 C249.134,138.018 252.769,127.783 252.769,127.783 C252.216,122.663 237.482,125.776 236.169,130.984 C235.289,134.478 234.888,141.125 233.993,148.968 C232.217,164.524 126.225,226.591 124.889,309.469 C123.327,406.387 175.917,424.124 249.694,430.289 z" fill-opacity="0" stroke="#000000" stroke-width="5" stroke-linecap="square" stroke-linejoin="bevel"/>
          </g>
          <path d="M160.261,398.722 C90.477,289.535 184.863,234.365 232.369,160.865" fill-opacity="0" stroke="#560F39" stroke-width="1.5" stroke-linecap="round" stroke-linejoin="round"/>
          <path d="M172.271,406.606 C111.081,310.132 206.002,250.941 232.369,169.832" fill-opacity="0" stroke="#560F39" stroke-width="1.5" stroke-linecap="round" stroke-linejoin="round"/>
          <path d="M189.814,414.022 C138.019,314.509 228.084,235.315 243.444,144.094" fill-opacity="0" stroke="#560F39" stroke-width="1.5" stroke-linecap="round" stroke-linejoin="round"/>
          <path d="M271.462,181.381 C315.089,251.109 377.003,326.069 308.518,406.951" fill-opacity="0" stroke="#560F39" stroke-width="1.5" stroke-linecap="round" stroke-linejoin="round"/>
          <path d="M240.884,189.993 C223.678,264.137 196.51,337.441 214.099,414.022" fill-opacity="0" stroke="#560F39" stroke-width="1.5" stroke-linecap="round" stroke-linejoin="round"/>
          <path d="M246.749,151.824 C245.792,238.587 285.749,341.227 247.27,424.614" fill-opacity="0" stroke="#560F39" stroke-width="1.5" stroke-linecap="round" stroke-linejoin="round"/>
          <path d="M255.597,169.832 C270.493,244.58 328.701,349.741 279.348,421.131" fill-opacity="0" stroke="#560F39" stroke-width="1.5" stroke-linecap="round" stroke-linejoin="round" id="Shape"/>
          <path d="M317.755,217.529 C360.695,256.534 369.508,309.405 354.574,354.341" fill-opacity="0" stroke="#560F39" stroke-width="1.5" stroke-linecap="round" stroke-linejoin="round"/>
        </g>
      </g>
      <g id="Half">
        <g id="Half">
          <g>
            <path d="M418.789,281.835 C420.069,281.871 420.902,282.521 421.341,283.698 C432.924,327.896 430.956,366.057 417.008,395.698 C404.308,422.686 382.064,441.397 354.774,449.196 C328.169,456.799 298.607,453.449 272.258,439.546 C244.016,424.645 221.037,398.627 206.918,363.727 C206.4,362.447 207.018,360.99 208.298,360.472 C209.578,359.954 211.035,360.572 211.553,361.852 C225.237,395.676 247.411,420.783 274.591,435.124 C299.815,448.433 328.051,451.632 353.4,444.388 C379.312,436.983 400.402,419.243 412.483,393.569 C425.899,365.06 427.806,328.09 416.504,284.966 C416.154,283.63 416.953,282.264 418.289,281.914 L418.789,281.835 z" filter="url(#Shadow_7)" fill="rgba(0,0,0,0.75)"/>
            <path d="M209.236,362.79 C267.627,507.12 467.22,468.617 418.922,284.332" fill="#951A64"/>
            <path d="M209.236,362.79 C267.627,507.12 467.22,468.617 418.922,284.332" fill-opacity="0" stroke="#000000" stroke-width="5" stroke-linecap="round" stroke-linejoin="round"/>
          </g>
          <g>
            <path d="M402.997,273.649 C410.774,273.92 416.425,275.274 421.252,281.713 C432.201,298.524 379.796,353.955 326.928,371.092 C265.489,391.008 215.725,380.068 205.568,363.825 C192.663,343.186 252.885,323.016 308.122,302.816 C338.195,293.083 371.053,275.292 402.997,273.649 z" filter="url(#Shadow_8)" fill="rgba(0,0,0,0.75)"/>
            <path d="M326.928,371.092 C265.489,391.008 215.725,380.068 205.568,363.825 C192.663,343.186 252.885,323.016 308.122,302.816 C362.388,282.972 408.18,261.642 421.252,281.713 C432.201,298.524 379.796,353.955 326.928,371.092 z" fill="#951A64"/>
            <path d="M402.997,273.649 C410.774,273.92 416.425,275.274 421.252,281.713 C432.201,298.524 379.796,353.955 326.928,371.092 C265.489,391.008 215.725,380.068 205.568,363.825 C192.663,343.186 252.885,323.016 308.122,302.816 C338.195,293.083 371.053,275.292 402.997,273.649 z M403.503,278.651 C396.682,278.562 390.001,280.02 383.411,281.61 C375.039,283.735 365.313,286.91 352.317,291.646 C345.355,294.183 319.542,303.928 315.469,305.439 C313.53,306.158 311.663,306.846 309.839,307.512 C307.035,308.538 304.521,309.453 299.87,311.144 C299.542,311.264 299.542,311.264 299.213,311.383 C260.463,325.471 244.546,331.75 229.838,339.52 C220.868,344.259 214.665,348.646 211.363,352.606 C208.51,356.028 208.133,358.496 209.808,361.174 C214.061,367.976 228.204,373.988 247.546,376.046 C270.268,378.464 297.445,375.393 325.387,366.336 C349.27,358.594 375.03,341.946 394.509,322.722 C411.898,305.561 420.443,289.632 417.062,284.442 C413.79,279.662 408.825,279.112 403.503,278.651 z" fill="#000000"/>
          </g>
        </g>
        <path d="M327.359,366.475 C319.717,368.711 324.573,367.716 304.149,373.649 C291.435,377.343 277.44,378 263.719,377.587 C235.944,376.749 212.682,369.447 208.702,360.586 C204.788,351.872 225.816,340.211 252.246,329.311 C269.72,322.105 289.512,315.746 306.173,308.951 C347.129,292.248 409.521,268.503 416.48,283.811 C423.248,298.697 372.816,353.171 327.359,366.475 z" fill="#FBE2F1"/>
        <g>
          <path d="M325.884,357.85 C319.1,359.897 323.393,358.928 305.262,364.367 C293.975,367.753 281.694,368.823 269.698,369.047 C245.413,369.501 225.349,364.737 222.234,357.989 C219.17,351.354 238.069,341.426 261.666,331.876 C277.266,325.563 294.861,319.818 309.734,313.857 C346.292,299.206 401.912,278.211 407.367,289.866 C412.672,301.198 366.241,345.668 325.884,357.85 z" fill="#FBE2F1"/>
          <path d="M397.311,286.496 C400.747,286.552 405.421,286.386 407.367,289.866 C412.672,301.198 366.241,345.668 325.884,357.85 C319.1,359.897 323.393,358.928 305.262,364.367 C293.975,367.753 281.694,368.823 269.698,369.047 C245.413,369.501 225.349,364.737 222.234,357.989 C219.17,351.354 238.069,341.426 261.666,331.876 C277.266,325.563 294.861,319.818 309.734,313.857 C337.032,304.113 367.936,288.987 397.311,286.496 z M400.215,288.979 C397.658,288.979 398.731,288.97 396.996,288.992 C388.106,289.626 379.456,291.96 370.918,294.396 C354.673,299.164 335.386,306.27 310.664,316.178 C306.889,317.691 302.78,319.256 297.818,321.085 C295.661,321.88 293.429,322.693 290.46,323.769 C290.546,323.738 284.685,325.859 283.019,326.464 C274.241,329.653 268.314,331.883 262.603,334.194 C249.879,339.343 239.935,344.031 233.266,348.152 C226.568,352.291 223.84,355.503 224.504,356.941 C227.032,362.418 246.506,366.981 269.651,366.547 C283.44,366.29 294.638,364.944 304.543,361.972 C314.268,359.055 316.805,358.241 320.757,356.87 C320.807,356.853 320.807,356.853 320.857,356.835 C322.137,356.392 323.228,356.04 325.161,355.456 C343.424,349.944 364.609,337.037 382.098,321.662 C397.608,308.027 406.959,294.89 405.103,290.926 C403.898,289.316 402.043,289.214 400.215,288.979 z" fill="#FFFFFF"/>
        </g>
        <g>
          <path d="M324.964,348.584 C319.734,350.222 323.026,349.391 309.051,353.747 C300.352,356.459 291.03,357.767 281.97,358.529 C263.628,360.072 248.758,358.116 246.78,354.037 C244.835,350.026 259.635,342.809 277.959,335.587 C290.073,330.812 303.66,326.291 315.205,321.775 C343.586,310.676 386.693,294.604 390.166,301.645 C393.542,308.492 356.074,338.84 324.964,348.584 z" fill="#FBE2F1"/>
          <path d="M385.842,299.93 C387.711,300.146 388.993,300.065 390.166,301.645 C393.542,308.492 356.074,338.84 324.964,348.584 C319.734,350.222 323.026,349.391 309.051,353.747 C300.352,356.459 291.03,357.767 281.97,358.529 C263.628,360.072 248.758,358.116 246.78,354.037 C244.835,350.026 259.635,342.809 277.959,335.587 C290.073,330.812 303.66,326.291 315.205,321.775 C331.55,315.419 347.947,309.13 364.755,304.086 C371.647,302.018 378.63,300.207 385.842,299.93 z M385.718,302.427 C382.428,302.562 383.891,302.432 381.323,302.736 C376.768,303.367 370.51,304.921 362.759,307.298 C350.244,311.135 335.307,316.598 316.116,324.104 C313.037,325.308 309.69,326.562 305.572,328.066 C303.973,328.65 302.334,329.243 300.091,330.053 C299.467,330.278 297.214,331.09 297.327,331.05 C296.215,331.451 295.376,331.754 294.557,332.05 C287.852,334.476 283.278,336.177 278.875,337.913 C268.997,341.806 261.241,345.266 255.987,348.199 C253.194,349.758 251.166,351.14 249.992,352.275 C249.531,352.741 249.708,352.554 249.219,353.169 C251.393,355.032 255.804,355.503 258.558,355.912 C264.794,356.715 272.978,356.777 281.76,356.038 C292.166,355.163 300.678,353.739 308.307,351.36 C315.804,349.023 317.758,348.382 320.817,347.315 C320.846,347.305 320.846,347.305 320.875,347.294 C321.877,346.946 322.717,346.668 324.217,346.198 C338.288,341.791 354.968,332.589 368.994,322.031 C375.255,317.318 380.489,312.68 383.91,308.836 C385.561,306.98 386.737,305.365 387.379,304.098 C387.655,303.554 387.813,303.111 387.863,302.797 L387.865,302.791 C387.239,302.563 387.599,302.67 386.775,302.511 L385.718,302.427 z" fill="#FFFFFF"/>
        </g>
        <g id="Shape">
          <path d="M321.214,341.47 C318.516,342.334 320.209,341.879 312.998,344.177 C308.51,345.607 303.743,346.428 299.125,347 C289.775,348.156 282.282,347.667 281.389,345.902 C280.511,344.166 288.219,340.574 297.715,336.889 C303.993,334.453 311.011,332.092 316.993,329.786 C331.698,324.118 354.012,315.858 355.582,318.904 C357.109,321.865 337.267,336.335 321.214,341.47 z" fill="#FBE2F1"/>
          <path d="M353.435,318.251 C354.227,318.266 355.045,318.248 355.582,318.904 C357.109,321.865 337.267,336.335 321.214,341.47 C318.516,342.334 320.209,341.879 312.998,344.177 C308.51,345.607 303.743,346.428 299.125,347 C289.775,348.156 282.282,347.667 281.389,345.902 C280.511,344.166 288.219,340.574 297.715,336.889 C303.993,334.453 311.011,332.092 316.993,329.786 C327.909,326.168 342.049,319.207 353.435,318.251 z M351.577,320.956 L351.379,320.986 C349.103,321.375 345.923,322.218 341.963,323.462 C335.532,325.483 327.818,328.293 317.892,332.119 C316.285,332.738 314.541,333.387 312.393,334.168 C311.563,334.47 310.714,334.776 309.544,335.198 C309.231,335.31 308.826,335.456 308.108,335.714 C307.535,335.921 307.096,336.079 306.67,336.233 C303.237,337.471 300.881,338.342 298.619,339.22 C293.531,341.194 289.53,342.921 286.823,344.34 C285.827,344.882 286.162,344.675 285.789,344.907 C286.565,345.018 286.082,344.958 287.242,345.051 C290.313,345.245 294.4,345.065 298.818,344.518 C304.066,343.869 308.369,343.028 312.239,341.795 C316.099,340.565 317.099,340.232 318.672,339.681 C318.685,339.677 318.685,339.677 318.698,339.673 C319.227,339.488 319.668,339.34 320.453,339.089 C327.616,336.798 336.249,332.316 343.58,327.308 C346.84,325.081 349.577,322.918 351.366,321.169 L351.577,320.956 z" fill="#FFFFFF"/>
        </g>
        <g>
          <g>
            <path d="M309.927,342.314 C305.981,341.988 303.16,340.043 303.628,337.969 C304.096,335.895 307.674,334.477 311.62,334.803 C315.567,335.128 318.387,337.074 317.919,339.148 C317.452,341.222 313.874,342.639 309.927,342.314 z" fill="#D2D291"/>
            <path d="M310.163,334.76 L311.62,334.803 C315.567,335.128 318.387,337.074 317.919,339.148 C317.452,341.222 313.874,342.639 309.927,342.314 C305.981,341.988 303.16,340.043 303.628,337.969 C304.637,335.296 307.752,335.079 310.163,334.76 z M310.245,335.759 C308.275,335.956 305.571,336.115 304.603,338.189 C304.315,339.471 306.582,341.035 310.009,341.317 C313.52,341.607 316.616,340.38 316.944,338.928 C317.233,337.646 314.965,336.082 311.538,335.799 L310.245,335.759 z" fill="#E6E6A5"/>
          </g>
          <g>
            <path d="M310.447,340.007 C308.129,339.816 306.395,339.012 306.576,338.212 C306.756,337.412 308.782,336.919 311.1,337.11 C313.419,337.301 315.152,338.105 314.972,338.905 C314.791,339.705 312.766,340.198 310.447,340.007 z" fill="#D2D291"/>
            <path d="M310.247,337.069 L311.1,337.11 C313.419,337.301 315.152,338.105 314.972,338.905 C314.791,339.705 312.766,340.198 310.447,340.007 C308.129,339.816 306.395,339.012 306.576,338.212 C307.239,337.02 309.104,337.139 310.247,337.069 z M309.535,338.085 L308.273,338.261 L307.892,338.375 L307.995,338.431 C308.6,338.711 309.511,338.926 310.529,339.01 C311.556,339.095 312.542,339.034 313.275,338.856 L313.655,338.741 L313.552,338.686 C312.947,338.406 312.037,338.191 311.018,338.107 L309.535,338.085 z" fill="#E6E6A5"/>
          </g>
        </g>
        <g>
          <g>
            <path d="M326.51,335.648 C324.771,338.95 321.957,340.803 320.224,339.788 C318.491,338.773 318.495,335.273 320.234,331.972 C321.973,328.67 324.787,326.817 326.52,327.832 C328.253,328.847 328.248,332.347 326.51,335.648 z" fill="#D2D291"/>
            <path d="M325.824,327.583 L326.52,327.832 C328.253,328.847 328.248,332.347 326.51,335.648 C324.771,338.95 321.957,340.803 320.224,339.788 C318.491,338.773 318.495,335.273 320.234,331.972 C321.181,330.316 322.387,328.586 324.228,327.825 C324.725,327.62 325.292,327.664 325.824,327.583 z M325.554,328.555 C323.391,328.875 322.16,330.683 321.119,332.438 C319.597,335.328 319.593,338.26 320.729,338.925 C321.817,339.562 324.116,338.048 325.625,335.182 C327.147,332.293 327.151,329.36 326.014,328.695 L325.554,328.555 z" fill="#E6E6A5"/>
          </g>
          <g>
            <path d="M324.582,334.519 C323.561,336.459 322.191,337.714 321.522,337.322 C320.854,336.93 321.14,335.041 322.161,333.101 C323.183,331.161 324.553,329.906 325.221,330.298 C325.89,330.69 325.604,332.579 324.582,334.519 z" fill="#D2D291"/>
            <path d="M324.94,330.226 L325.221,330.298 C325.89,330.69 325.604,332.579 324.582,334.519 C323.561,336.459 322.191,337.714 321.522,337.322 C320.854,336.93 321.14,335.041 322.161,333.101 C322.825,331.867 323.604,330.743 324.94,330.226 z M324.562,331.511 L324.499,331.562 C324.02,332.001 323.493,332.719 323.046,333.567 C322.598,334.417 322.298,335.273 322.197,335.942 L322.181,336.109 L322.244,336.057 C322.723,335.619 323.251,334.901 323.697,334.053 C324.145,333.203 324.445,332.347 324.547,331.678 L324.562,331.511 z" fill="#E6E6A5"/>
          </g>
        </g>
        <g>
          <g>
            <path d="M331.19,326.235 C334.129,323.621 337.637,322.485 339.025,323.697 C340.413,324.91 339.156,328.012 336.217,330.626 C333.278,333.24 329.77,334.377 328.382,333.164 C326.994,331.951 328.251,328.849 331.19,326.235 z" fill="#D2D291"/>
            <path d="M336.711,323.278 C338.646,323.361 337.917,323.073 339.025,323.697 C340.413,324.91 339.156,328.012 336.217,330.626 C333.278,333.24 329.77,334.377 328.382,333.164 C326.994,331.951 328.251,328.849 331.19,326.235 C332.797,324.666 334.631,323.952 336.711,323.278 z M337.942,324.244 C335.568,324.15 333.618,325.55 331.855,326.982 C329.309,329.247 328.291,331.757 329.04,332.411 C329.917,333.178 332.947,332.196 335.552,329.879 C338.099,327.614 339.116,325.104 338.367,324.45 L337.942,324.244 z" fill="#E6E6A5"/>
          </g>
          <g>
            <path d="M332.734,327.584 C334.461,326.048 336.295,325.182 336.83,325.65 C337.365,326.117 336.4,327.742 334.673,329.277 C332.946,330.813 331.112,331.679 330.577,331.211 C330.042,330.744 331.007,329.12 332.734,327.584 z" fill="#D2D291"/>
            <path d="M336.571,325.535 L336.83,325.65 C337.365,326.117 336.4,327.742 334.673,329.277 C332.946,330.813 331.112,331.679 330.577,331.211 C330.042,330.744 331.007,329.12 332.734,327.584 C333.894,326.574 335.023,325.755 336.571,325.535 z M335.518,326.851 C334.139,327.662 334.855,327.183 333.399,328.331 C332.183,329.55 332.663,328.971 331.889,330.01 C333.268,329.199 332.552,329.678 334.008,328.53 C335.224,327.311 334.744,327.89 335.518,326.851 z" fill="#E6E6A5"/>
          </g>
        </g>
        <path d="M236.825,383.375 C251.1,410.612 273.449,430.796 301.913,442.89" fill-opacity="0" stroke="#560F39" stroke-width="1.5" stroke-linecap="round" stroke-linejoin="round"/>
        <path d="M275.384,384.795 C287.819,408.868 303.586,430.125 324.894,446.703" fill-opacity="0" stroke="#560F39" stroke-width="1.5" stroke-linecap="round" stroke-linejoin="round"/>
        <path d="M309.008,380.309 C324.174,399.45 334.78,421.432 343.248,444.31" fill-opacity="0" stroke="#560F39" stroke-width="1.5" stroke-linecap="round" stroke-linejoin="round"/>
        <path d="M416.264,315.854 C425.65,342.156 420.127,368.816 409.03,393.686" fill-opacity="0" stroke="#560F39" stroke-width="1.5" stroke-linecap="round" stroke-linejoin="round"/>
        <path d="M379.494,351.598 C386.395,378.285 385.481,403.141 380.317,429.207" fill-opacity="0" stroke="#560F39" stroke-width="1.5" stroke-linecap="round" stroke-linejoin="round"/>
        <path d="M347.259,377.019 C356.68,395.403 359.82,415.551 361.603,435.637" fill-opacity="0" stroke="#560F39" stroke-width="1.5" stroke-linecap="round" stroke-linejoin="round"/>
        <path d="M395.637,338.738 C405.435,364.472 402.769,390.974 392.142,416.015" fill-opacity="0" stroke="#560F39" stroke-width="1.5" stroke-linecap="round" stroke-linejoin="round"/>
      </g>
    </g>
    <path d="M237.038,331.713 L259.936,321.947" fill-opacity="0" stroke="#951A64" stroke-width="9" stroke-linejoin="round"/>
  </g>
</svg>
