<?xml version="1.0" encoding="UTF-8"?>
<!DOCTYPE svg PUBLIC "-//W3C//DTD SVG 1.1//EN" "http://www.w3.org/Graphics/SVG/1.1/DTD/svg11.dtd">
<svg version="1.1" xmlns="http://www.w3.org/2000/svg" xmlns:xlink="http://www.w3.org/1999/xlink" x="0" y="0" width="500" height="500" viewBox="0, 0, 500, 500">
  <defs>
    <filter id="Shadow_1">
      <feGaussianBlur in="SourceAlpha" stdDeviation="2.5"/>
      <feOffset dx="0" dy="2" result="offsetblur"/>
      <feFlood flood-color="#000000"/>
      <feComposite in2="offsetblur" operator="in"/>
    </filter>
    <filter id="Shadow_2">
      <feGaussianBlur in="SourceAlpha" stdDeviation="2.5"/>
      <feOffset dx="0" dy="2" result="offsetblur"/>
      <feFlood flood-color="#000000"/>
      <feComposite in2="offsetblur" operator="in"/>
    </filter>
    <filter id="Shadow_3">
      <feGaussianBlur in="SourceAlpha" stdDeviation="2.5"/>
      <feOffset dx="0" dy="2" result="offsetblur"/>
      <feFlood flood-color="#000000"/>
      <feComposite in2="offsetblur" operator="in"/>
    </filter>
  </defs>
  <g id="Tomato">
    <g>
      <g>
        <path d="M237.955,91.186 C325.997,91.186 397.448,157.101 397.448,238.516 C397.448,319.931 325.997,385.846 237.955,385.846 C149.912,385.846 78.461,319.931 78.461,238.516 C78.461,157.101 149.912,91.186 237.955,91.186 z" filter="url(#Shadow_1)" fill="rgba(0,0,0,0.75)"/>
        <path d="M237.955,383.346 C151.25,383.346 80.961,318.504 80.961,238.516 C80.961,158.528 151.25,93.686 237.955,93.686 C324.66,93.686 394.948,158.528 394.948,238.516 C394.948,318.504 324.66,383.346 237.955,383.346 z" fill="#ED0A0D"/>
        <path d="M237.955,383.346 C151.25,383.346 80.961,318.504 80.961,238.516 C80.961,158.528 151.25,93.686 237.955,93.686 C324.66,93.686 394.948,158.528 394.948,238.516 C394.948,318.504 324.66,383.346 237.955,383.346 z" fill-opacity="0" stroke="#000000" stroke-width="5" stroke-linecap="round" stroke-linejoin="round"/>
      </g>
      <path d="M165.732,139.33 L164.829,139.659 L163.063,140.402 L161.319,141.208 L159.607,142.084 L157.897,142.993 L156.206,143.953 L154.529,144.953 L152.855,145.984 L151.187,147.044 L149.521,148.13 L147.863,149.243 L146.21,150.382 L144.543,151.521 L142.872,152.674 L141.374,154.013 L139.976,155.462 L138.595,156.934 L137.25,158.447 L135.921,159.982 L134.612,161.537 L133.321,163.111 L132.051,164.705 L130.801,166.316 L129.573,167.944 L128.368,169.588 L127.186,171.248 L126.029,172.922 L124.897,174.61 L123.791,176.311 L122.711,178.024 L121.66,179.748 L120.638,181.481 L119.644,183.225 L118.682,184.977 L117.75,186.737 L116.851,188.504 L115.985,190.278 L115.152,192.056 L114.355,193.84 L113.593,195.627 L112.868,197.417 L112.18,199.211 L111.53,201.005 L110.92,202.801 L110.35,204.597 L109.822,206.392 L109.335,208.187 L108.891,209.981 L108.492,211.771 L108.137,213.559 L107.828,215.344 L107.567,217.126 L107.354,218.904 L107.19,220.677 L107.076,222.447 L107.015,224.212 L107.006,225.971 L107.053,227.727 L107.155,229.479 L107.316,231.227 L107.537,232.972 L107.82,234.714 L108.168,236.455 L108.584,238.195 L108.832,239.118 L108.832,239.118 C109.572,241.844 112.484,244.962 115.337,246.082 C118.19,247.202 119.903,245.9 119.163,243.174 C119.163,243.174 119.163,243.174 119.163,243.174 L118.995,242.565 L118.665,241.212 L118.382,239.822 L118.145,238.397 L117.956,236.94 L117.815,235.454 L117.723,233.942 L117.679,232.404 L117.683,230.842 L117.736,229.261 L117.836,227.661 L117.984,226.042 L118.178,224.408 L118.418,222.759 L118.704,221.098 L119.034,219.425 L119.409,217.74 L119.826,216.048 L120.287,214.348 L120.788,212.641 L121.331,210.928 L121.913,209.211 L122.535,207.491 L123.195,205.769 L123.892,204.045 L124.626,202.321 L125.396,200.599 L126.201,198.878 L127.039,197.161 L127.911,195.447 L128.814,193.738 L129.75,192.035 L130.715,190.339 L131.711,188.651 L132.734,186.971 L133.786,185.302 L134.864,183.643 L135.969,181.996 L137.098,180.361 L138.252,178.74 L139.429,177.134 L140.629,175.542 L141.85,173.967 L143.091,172.41 L144.352,170.87 L145.632,169.35 L146.93,167.85 L148.245,166.371 L149.557,164.894 L150.884,163.44 L152.14,161.924 L153.249,160.271 L154.388,158.657 L155.566,157.094 L156.76,155.56 L157.968,154.055 L159.192,152.584 L160.426,151.143 L161.672,149.733 L162.919,148.347 L164.157,146.975 L165.404,145.637 L166.627,144.299 L167.834,142.968 L168.419,142.287 C168.883,141.972 168.657,141.054 167.916,140.238 C167.174,139.422 166.196,139.015 165.732,139.33 L165.732,139.33" fill="#FFFFFF"/>
      <g>
        <path d="M268.243,242.635 C288.057,242.448 307.531,246.98 326.572,252.032 C333.507,253.905 340.431,255.505 348.282,257.105 C352.978,258.062 369.033,261.121 367.565,260.836 C391.169,265.423 402.42,269.434 412.246,278.536 C423.986,289.413 430.994,306.986 434.631,335.696 C438.96,396.234 362.104,414.398 315.936,419.786 C285.169,423.163 257.266,414.792 233.109,395.641 C212.319,378.265 200.972,354.756 203.757,333.839 C209.862,287.984 218.778,264.03 236.158,251.852 C245.574,245.071 256.935,243.215 268.243,242.635 z M315.942,419.786 L315.913,419.789 L315.936,419.786 L315.942,419.786 z" filter="url(#Shadow_2)" fill="rgba(0,0,0,0.75)"/>
        <path d="M315.651,417.303 C251.082,424.863 200.856,374.572 206.235,334.169 C217.447,249.961 238.749,230.901 325.92,254.445 C388.27,271.286 422.3,258.238 432.151,336.01 C437.476,378.054 390.218,409.447 315.651,417.303 z" fill="#ED0A0D"/>
        <path d="M315.651,417.303 C251.082,424.863 200.856,374.572 206.235,334.169 C217.447,249.961 238.749,230.901 325.92,254.445 C388.27,271.286 422.3,258.238 432.151,336.01 C437.476,378.054 390.218,409.447 315.651,417.303 z" fill-opacity="0" stroke="#000000" stroke-width="5" stroke-linecap="round" stroke-linejoin="round"/>
      </g>
    </g>
    <path d="M289.811,247.808 C300.528,249.741 294.911,248.6 305.632,250.633" fill-opacity="0" stroke="#ED0A0D" stroke-width="15" stroke-linecap="square" stroke-linejoin="round"/>
  </g>
  <g id="Slice">
    <g id="Slice">
      <path d="M274.967,383.44 C229.56,379.236 216.715,336.459 224.795,310.845 C237.969,269.081 249.011,256.755 288.702,265.717 C340.836,277.49 406.144,278.05 385.963,306.36 C370.373,328.23 327.942,381.759 288.982,384.001 z" fill="#FF8080"/>
      <g>
        <path d="M338.533,320.314 C295.929,372.448 235.946,342.177 265.657,296.489" fill-opacity="0" stroke="#ED0A0D" stroke-width="28.5" stroke-linecap="round" stroke-linejoin="round"/>
        <path d="M349.184,309.383 C328.162,351.426 261.453,335.17 265.657,296.489" fill-opacity="0" stroke="#ED0A0D" stroke-width="22.5" stroke-linecap="round" stroke-linejoin="round" id="Shape"/>
        <path d="M274.066,296.489 C270.366,337.122 325.204,321.471 346.662,304.618" fill-opacity="0" stroke="#ED0A0D" stroke-width="11" stroke-linecap="round" stroke-linejoin="round"/>
        <path d="M333.883,269.465 L333.883,269.465" fill-opacity="0" stroke="#ED0A0D" stroke-width="4" stroke-linecap="round" stroke-linejoin="round" id="Shape"/>
      </g>
      <g id="Seeds">
        <path d="M269.996,326.528 C266.754,326.528 264.126,324.302 264.126,321.556 C264.126,318.811 270.844,315.817 273.996,315.093 C279.191,313.9 277.944,313.502 276.074,320.562 C275.369,323.224 273.238,326.528 269.996,326.528 z" fill="#EC9E1C"/>
        <path d="M306.813,341.89 C304.738,344.254 301.253,344.589 299.03,342.638 C296.807,340.686 298.684,333.66 300.115,330.847 C302.474,326.211 301.354,326.837 305.873,333.218 C307.577,335.624 308.888,339.526 306.813,341.89 z" fill="#EC9E1C"/>
        <path d="M282.863,339.331 C279.65,339.909 276.613,337.969 276.078,334.997 C275.544,332.026 281.617,327.589 284.6,326.244 C289.514,324.027 288.202,323.819 287.723,331.792 C287.543,334.797 286.075,338.753 282.863,339.331 z" fill="#EC9E1C"/>
        <path d="M261.019,307.708 C258.54,306.428 257.569,303.38 258.849,300.902 C260.13,298.424 266.662,298.375 269.41,298.967 C273.938,299.942 273.171,299.091 268.448,304.724 C266.668,306.848 263.498,308.989 261.019,307.708 z" fill="#EC9E1C"/>
        <path d="M325.142,334.348 C324.212,337.353 321.302,339.122 318.643,338.299 C315.983,337.476 315.011,330.352 315.214,327.213 C315.549,322.04 314.806,323.076 321.107,326.926 C323.483,328.377 326.072,331.342 325.142,334.348 z" fill="#EC9E1C"/>
        <path d="M341.962,322.574 C341.899,325.53 339.722,327.88 337.101,327.823 C334.48,327.767 331.753,321.582 331.123,318.694 C330.086,313.934 329.682,315.062 336.385,316.911 C338.913,317.609 342.026,319.619 341.962,322.574 z" fill="#EC9E1C"/>
      </g>
    </g>
  </g>
  <g id="Layer_5">
    <g>
      <path d="M182.56,32.312 L233.86,81.146 L241.525,50.92 L251.27,51.144 L258.368,85.727 L320.82,40.185 L327.831,47.137 L289.451,100.726 L352.885,100.772 L354.472,110.512 L274.421,137.373 L274.59,177.986 L265.47,180.84 L232.174,132.423 L126.765,95.005 L129.241,85.358 L213.001,98.999 L174.884,38.602 L182.56,32.312 z" filter="url(#Shadow_3)" fill="rgba(0,0,0,0.75)"/>
      <path d="M269.59,178.007 L235.375,128.254 L128.438,90.293 L223.154,105.719 L179.113,35.933 L236.605,90.662 L246.372,52.149 L255.033,94.347 L323.766,44.225 L279.725,105.719 L352.881,105.772 L269.406,133.782 z" fill="#08C00E"/>
      <path d="M182.56,32.312 L233.86,81.146 L241.525,50.92 L251.27,51.144 L258.368,85.727 L320.82,40.185 L327.831,47.137 L289.451,100.726 L352.885,100.772 L354.472,110.512 L274.421,137.373 L274.59,177.986 L265.47,180.84 L232.174,132.423 L126.765,95.005 L129.241,85.358 L213.001,98.999 L174.884,38.602 L182.56,32.312 z M179.113,35.933 L223.154,105.719 L128.438,90.293 L235.375,128.254 L269.59,178.007 L269.406,133.782 L352.881,105.772 L279.725,105.719 L323.766,44.225 L255.033,94.347 L246.372,52.149 L236.605,90.662 L179.113,35.933 z" fill="#000000"/>
    </g>
  </g>
</svg>
